<?xml version="1.0" encoding="utf-8"?>
<!-- Generator: Adobe Illustrator 19.0.0, SVG Export Plug-In . SVG Version: 6.00 Build 0)  -->
<svg version="1.1" id="Layer_1" xmlns="http://www.w3.org/2000/svg" xmlns:xlink="http://www.w3.org/1999/xlink" x="0px" y="0px"
	 viewBox="0 0 550 450" style="enable-background:new 0 0 550 450;" xml:space="preserve">
<style type="text/css">
	.st0{fill:#202143;}
	.st1{fill:#2A2E6B;}
	.st2{fill:#EDEDED;}
	.st3{fill:none;stroke:#000000;stroke-miterlimit:10;}
	.st4{fill:#F6AD92;}
	.st5{fill:#F6C23C;}
	.st6{fill:#3C3C3B;}
	.st7{fill:#FDFCFB;stroke:#F6F6F6;stroke-width:0.2;stroke-miterlimit:10;}
	.st8{fill:#EAB43A;}
	.st9{fill:#E09C77;}
	.st10{fill:#F7B591;}
	.st11{fill:#131517;}
	.st12{fill:#6E7072;}
	.st13{fill:#1E2525;}
	.st14{fill:#C6C6C6;}
	.st15{fill:#262625;}
	.st16{fill:#FFFFFF;stroke:#DADADA;stroke-width:0.2;stroke-miterlimit:10;}
	.st17{fill:#FDFCFB;}
	.st18{fill:#FFFFFF;stroke:#DADADA;stroke-miterlimit:10;}
</style>
<g id="XMLID_1027_">
	<ellipse id="XMLID_1598_" class="st0" cx="317.4" cy="216.2" rx="172.3" ry="172.8"/>
	<ellipse id="XMLID_1596_" class="st1" cx="281.6" cy="216.9" rx="172.3" ry="172.8"/>
	<ellipse id="XMLID_1595_" class="st2" cx="281.6" cy="216.9" rx="147.9" ry="148.3"/>
	
		<rect id="XMLID_1607_" x="174.8" y="267.5" transform="matrix(-9.922346e-002 -0.9951 0.9951 -9.922346e-002 -77.3796 481.6262)" class="st3" width="8.9" height="16.7"/>
	<polygon id="XMLID_1591_" class="st4" points="296,148.5 299,148.5 295.6,161.4 290.4,159.9 292,149.2 	"/>
	<polygon id="XMLID_1615_" class="st5" points="197.1,104.8 183.7,213.5 214.1,226.7 225,115 	"/>
	<polygon id="XMLID_1617_" class="st6" points="188.6,216.2 212.9,218.3 215.6,230.5 	"/>
	<path id="XMLID_1609_" class="st6" d="M237,242.4c0,0,29.8,25.4,32.4,31.9c2.6,6.5,0,14.3,0,14.3c-11.3,26.2-19.6,52.6-25.2,79.2
		l-21.7-5c6.2-32,12.3-68,18.9-77.2c-23.9-11-46.8-22.2-58.5-35.7l4.5-39.4l49.6,32.8"/>
	<path id="XMLID_1586_" class="st7" d="M296.6,146.1l-35.7-6.5c-15-12-29-22.2-41-29l-7.6,24.9l21.4,14.7c0,0,2.4-2.4,4.2-2.4
		s15.9,6.7,20.4,7.3c4.6,0.6,33.9,7.7,33.9,7.7L296.6,146.1z"/>
	<path id="XMLID_1612_" class="st6" d="M182.9,250c-2.6,24.3-7.1,46.5-13.5,66.4c-0.7,8.2-13.3,15.1-52.4,19
		c-17.8,3.4-34.7,7.7-42.9,20.4c0.6-12.1,0.2-22.9-4.8-28.2c25.7-14.9,51-23.9,75.7-23.2c-2-23.2-4.8-47.6,0-60.1l38.6-30.8h4.3
		L182.9,250z"/>
	<path id="XMLID_1580_" class="st8" d="M199.7,91.9c0,0-5,6.5-5,8.3c0,1.7,12.1,20.1,12.1,20.1l8.1-9.7l5,10.1v-17.9L199.7,91.9z"/>
	<polygon id="XMLID_1031_" class="st9" points="202.4,86.2 199.7,92.3 214.9,110.6 219.9,102.8 212.3,86.6 202.5,83.4 	"/>
	<g id="XMLID_1028_">
		<path id="XMLID_1030_" class="st10" d="M247.3,71.4c-0.5,6.4-2.7,11.9-7.4,16.1c0,0,0.8,4.3,0.5,6.5c-0.3,2.2-4.7,0-4.7,0
			c-2.2,5-4.9,8.7-8.4,10.4c-3.6,2.8-20.8-8.2-24.7-19.1l6.3-16.5l16.9-10.4l18.7,3.9L247.3,71.4z"/>
		<path id="XMLID_1029_" class="st11" d="M246.1,70.8c3.2,0,4.2-2.9,3.2-8.8c0,0-3.2-10.3-10.2-14.6c-7-4.3-15.1-5-23.7,1.3
			c-7.3,5.3-15.6,30.8-15.5,32.5c-1.2,3.6,1.4,5,4.8,1c0,0,10.9-13.2,13.4-13.2c2.5-0.1,6.7,1.7,5.2,6.5c-1.5,4.8-4.1,8.5-2.1,9.1
			c3.6,1.1,15.1-17.7,13.7-18.9C239.7,63.3,243.5,64.4,246.1,70.8z"/>
	</g>
	<polygon id="XMLID_1581_" points="209.8,116.7 212.3,118.4 211,134.2 218.7,139.6 216.3,121.7 218.3,121.3 218.1,117 214.9,110.6 	
		"/>
	<path id="XMLID_1589_" class="st4" d="M287.1,169.9c0,0,14.3,0.8,16.5,1.9c2.2,1,0,3,0,3s2,3,0.4,6.8c-1.6,3.8-3.1,3.9-3.1,3.9
		l-18.7-1.4l-0.7-12.9L287.1,169.9z"/>
	<path id="XMLID_1590_" class="st4" d="M311.4,150.6c0,0,3.5,1.5,3.6,3.3c0.1,1.8-1.3,3.6-1.3,3.6s1.3,2.2,0.2,4
		c-1,1.9-2.5,2.2-2.5,2.2s0.6,1.5-0.4,2.5c-1,1-5.4-0.4-5.4-0.4L311.4,150.6z"/>
	<path id="XMLID_1593_" class="st12" d="M236.6,235.8c8.9-10.1,17.8-12.8,26.7-8.1c1.1,11.3-4.4,18.7-20.2,19.9l1.1,2.3
		c15.2,0.8,24.2-5.2,23.9-21.5l9.5-4.8c3.7,2.1,7.4,1.8,11.2-0.4l79.8,45.7c3.1,1,5.5-2,3.3-5.2l-79.5-44.9c1.2-3.6,0.8-6.9-2.6-9.7
		l8.7-23.9l-2.8-0.2l-7.6,19.4l2.2-19.8l-3.4-0.3l-3.6,21.1c-3.4,0.3-5.9,1.4-6.1,4.6l-5.4-2.2c-0.3-7-3.8-9.8-11.3-7.3
		c0,0-3.3-0.9-3.6-0.4c-0.2,0.4-1.6,3.6,0.4,3.8c1.9,0.2,1.9,0.2,1.9,0.2c-1,7.8,5.9,9.6,10.3,6.5l6.4,2.9l-1.2,3.6l-9.7,4.2
		c-12.7-2.9-23.8-1.4-30.7,12L236.6,235.8z"/>
	<path id="XMLID_1592_" class="st12" d="M292.2,169.9l8.9-30.3l10.9-11.9l5.2-17.1c1.6-1.6,3.8-1.2,4.3,1l-6.5,17.2
		c0,0,1.3,14,1.3,15.1s-4.3,6.7-4.3,6.7l-8.3,21.2l-3.2-0.7l11.3-24.8l-0.1-12.6l-7.6,7.4l-9.7,29.3L292.2,169.9z"/>
	<rect id="XMLID_1597_" x="279.2" y="88.1" class="st3" width="8.9" height="16.7"/>
	
		<rect id="XMLID_1600_" x="338.8" y="102.2" transform="matrix(0.882 0.4713 -0.4713 0.882 92.6297 -148.7258)" class="st3" width="8.9" height="16.7"/>
	
		<rect id="XMLID_1601_" x="384.5" y="148.1" transform="matrix(0.4713 0.882 -0.882 0.4713 343.5703 -260.3232)" class="st3" width="8.9" height="16.7"/>
	
		<rect id="XMLID_1602_" x="399" y="207.8" transform="matrix(-5.244622e-002 0.9986 -0.9986 -5.244622e-002 640.4302 -175.3685)" class="st3" width="8.9" height="16.7"/>
	
		<rect id="XMLID_1603_" x="384.5" y="267.5" transform="matrix(-0.5622 0.827 -0.827 -0.5622 835.6995 109.265)" class="st3" width="8.9" height="16.7"/>
	
		<rect id="XMLID_1604_" x="338.8" y="312.2" transform="matrix(-0.806 0.5919 -0.5919 -0.806 809.6998 375.7275)" class="st3" width="8.9" height="16.7"/>
	
		<rect id="XMLID_1605_" x="278.9" y="327.9" transform="matrix(-0.9982 -6.032147e-002 6.032147e-002 -0.9982 546.0176 689.0811)" class="st3" width="8.9" height="16.7"/>
	
		<rect id="XMLID_1606_" x="218.1" y="313.4" transform="matrix(-0.8347 -0.5506 0.5506 -0.8347 231.1722 712.8065)" class="st3" width="8.9" height="16.7"/>
	<path id="XMLID_1608_" class="st13" d="M185.3,209.2c1.1,2.9,27.1,6.8,27.1,5.2l1.7,2.5l-1.8,2.2c-9.9,1.1-19.5-0.5-28.5-5.5
		l-4.4-6.8L185.3,209.2z"/>
	<polygon id="XMLID_1599_" class="st14" points="194.9,212.6 195.1,218.2 203.9,219.4 204.2,214 	"/>
	<path id="XMLID_1611_" class="st15" d="M186.2,236c13.8,17.2,31.3,32.3,51,46.1c-21.3-7.8-40.3-17.7-54.3-32.2
		C183.6,244.2,184.4,238.7,186.2,236z"/>
	<path id="XMLID_1613_" class="st15" d="M75.5,346.3c20.7-13.5,54.6-21.3,92.9-28.9c2.2,19.6-80.1,11.2-94.2,38.4L75.5,346.3z"/>
	<path id="XMLID_1610_" d="M69.8,329.6c-4.9-0.7-9.1-0.5-11.8,2.2h-3.3v8.3l2.8,1.3l-0.4,13.2c2.4,7.8,5.6,14.6,10.8,18.8
		c0,0,2.6,1.5,3.5-1.2c0.9-2.7,2.9-16.5,2.9-20.7c0-4.2,0.2-11.7-1.1-15.6C72.1,331.9,69.8,329.6,69.8,329.6z"/>
	<path id="XMLID_1614_" d="M225.1,364.1c-3.6,3-4.1,8-3.1,14c12.7,6.5,25.8,9.6,39.4,9.1c3.3,0,3.7-2.3,1.7-6.3
		C249.1,372.4,232.8,360.8,225.1,364.1z"/>
	<path id="XMLID_1584_" class="st16" d="M197.1,95.6c-4.3,1.2-8.5,3.4-12.3,8.6c-10.5-0.6-19.7,2.4-27.1,10
		c-2,16.4-2.5,32.6-1.1,48.6c-11.5,21.5-20.4,47.8-28.2,76.1c0,0,37.3,13.1,40.5,10.9c3.2-2.2,26-66.9,26-66.9L197.1,95.6z"/>
	<path id="XMLID_1582_" class="st17" d="M197.1,95.6c-4.9,1.3-9.1,4.1-12.3,8.6c-11.9-0.4-20.8,3.1-27.1,10l-0.3,12.9l3.9,6
		c11.4,18.7,38.4,28.5,66.9,37.6l53.9,16.1l6.1-20.2c0,1.3-45.1-9.7-45.7-11.3c-0.2-0.6,3.6,1.8-8.8-5.1
		c-7.6-4.2-37.6-26.6-37.6-26.6L197.1,95.6z"/>
	<path id="XMLID_1585_" class="st18" d="M216.6,168.4l-5.1,54.5c0,0,14.1,23.7,15.6,24.7c1.5,1,8.9,1,10.2,0s1.8-8.6,1.8-8.6
		l-17.8-21.1l8.7-48.3L216.6,168.4z"/>
	<path id="XMLID_1583_" d="M228.1,170.6v9.8l8.8,19.8c0,0-0.3,14.6-0.6,14.1c-0.3-0.5-8.7-7-8.7-7l-7.4-21.6l-1.9-16.3L228.1,170.6z
		"/>
	<g id="XMLID_1616_">
		<ellipse id="XMLID_1588_" cx="283.4" cy="216.5" rx="5.8" ry="6"/>
		<ellipse id="XMLID_1594_" cx="265.3" cy="206" rx="4.1" ry="4.3"/>
	</g>
</g>
</svg>
