<?xml version="1.0" encoding="utf-8"?>
<!-- Generator: Adobe Illustrator 19.0.0, SVG Export Plug-In . SVG Version: 6.00 Build 0)  -->
<svg version="1.0" id="Layer_1" xmlns="http://www.w3.org/2000/svg" xmlns:xlink="http://www.w3.org/1999/xlink" x="0px" y="0px"
	 viewBox="0 0 550 440" style="enable-background:new 0 0 550 440;" xml:space="preserve">
<style type="text/css">
	.st0{fill:#B0D5D2;}
	.st1{fill:#4371B7;}
	.st2{fill:#F6F6F6;}
	.st3{fill:#88A49E;}
	.st4{fill:#5B5D6A;}
	.st5{fill:#F28C6C;}
	.st6{fill:#244F6E;}
	.st7{fill:#F2906B;}
	.st8{fill:#6F9FC0;}
	.st9{fill:none;stroke:#000000;stroke-width:0.1;stroke-miterlimit:10;}
	.st10{fill:#F2926D;}
	.st11{fill:#F7BAAD;stroke:#000000;stroke-width:0.1;stroke-miterlimit:10;}
	.st12{fill:#8D3D5C;}
	.st13{fill:#7B3A55;}
	.st14{fill:#F7B59B;}
	.st15{fill:#386F93;}
	.st16{fill:#312F30;stroke:#000000;stroke-width:0.1;stroke-miterlimit:10;}
	.st17{fill:#EFAC95;}
	.st18{fill:#843C5B;}
	.st19{fill:#2C292F;}
	.st20{fill:#EB5A5C;}
	.st21{fill:#EA504F;}
	.st22{fill:#EC6164;}
	.st23{fill:#81AADA;}
	.st24{fill:#E9B76F;}
	.st25{fill:#F6C23C;}
	.st26{fill:#3C3C3B;}
	.st27{fill:#EFB66A;}
	.st28{fill:#C6C6C6;}
	.st29{fill:#201D1F;}
	.st30{fill:#FFFFFF;stroke:#CEEAF7;stroke-width:0.2;stroke-miterlimit:10;}
	.st31{fill:#E2E1E1;}
	.st32{fill:#FFFFFF;}
	.st33{fill:#888888;}
	.st34{fill:#E8C583;}
	.st35{fill:#2A4C9B;}
	.st36{enable-background:new    ;}
	.st37{clip-path:url(#XMLID_10_);}
	.st38{fill:#14A6BA;}
	.st39{fill:#105097;}
</style>
<g id="XMLID_1552_">
	<g id="XMLID_1756_">
		<polygon id="XMLID_1557_" class="st0" points="308.3,249.6 288.3,343.3 294.1,343.3 313.3,250.1 		"/>
		<polygon id="XMLID_1556_" class="st0" points="348.5,253.3 343.1,340.2 348.5,340.2 352.9,253.3 		"/>
		<polygon id="XMLID_1555_" class="st0" points="375.6,255.8 373.3,335.8 381.8,335.8 381.8,255.8 373.3,253.3 		"/>
		<polygon id="XMLID_1554_" class="st1" points="322.2,47 448.6,53.7 403.2,258.3 271.9,246.3 		"/>
		<polygon id="XMLID_1553_" class="st2" points="326.2,53.2 440.6,60.4 398.7,249.6 280.2,240.3 		"/>
	</g>
	<g id="XMLID_1759_">
		<g id="XMLID_1090_">
			<path id="XMLID_1551_" d="M215.6,342.8v4.5c0,0,8.7,5.7,13.6,5.2c4.9-0.5,5.4-1.7,2.9-2.6c-2.4-0.9-9.7-6.8-9.2-7.8l-2.2-4
				L215.6,342.8z"/>
			<path id="XMLID_1550_" d="M252.2,333.8c-1.6,1.4-2,2.7-1.1,4.1c3.9,2.6,8.2,4,12.9,4.4c4.3,0.2,4.9-0.6,3.3-2
				c-3.6-2-6.9-4.5-10-7.6l-3.3-2.1L252.2,333.8z"/>
			<rect id="XMLID_1549_" x="248.4" y="322.5" class="st3" width="2.3" height="22.7"/>
			<rect id="XMLID_1548_" x="235.3" y="282.5" class="st3" width="2.7" height="44.4"/>
			<rect id="XMLID_1547_" x="197.9" y="285.1" class="st3" width="2.8" height="61"/>
			<rect id="XMLID_1546_" x="179.2" y="229.2" class="st4" width="62.5" height="20.6"/>
			<polygon id="XMLID_1545_" class="st4" points="196.5,274.3 183.6,275.2 196.5,286.2 255,283.1 238.5,268.2 			"/>
			<path id="XMLID_1544_" class="st5" d="M214.1,285.3c-3.9,21.9-3.1,40.8,1.5,57.4l7.2-1.3c0.4-21.6,1.6-42.1,4.9-59.5l-8-6.3
				L214.1,285.3z"/>
			<path id="XMLID_1543_" class="st5" d="M235.3,279.5c0,0,3.6,4.9,5.5,8.9c2,4,0.9,11,0.9,11c-1.5,6.8,6.6,19.4,10,34.6l5.2-1.2
				c-0.5-18,1.3-33.5-9.2-62.5l-9.1-3.1L235.3,279.5z"/>
			<path id="XMLID_1542_" class="st6" d="M189.4,252.2c0,0-0.7,10.3,0,14.2c0.7,3.9,23.8,22,23.8,22c-0.3-6.8,13.4-10.7,15.9-4.3
				l6.7-2.8c-3.1-2.6,6.8-11,12.5-11l-18.6-22.1L189.4,252.2z"/>
			<path id="XMLID_1541_" class="st7" d="M204,172c-0.3,0.1-13.2,12.5-13.2,12.5l15.6,23.7l13-13.6l0.6-16.3L204,172z"/>
			<path id="XMLID_1540_" class="st7" d="M206.8,178.2c0.4,1.3,2.1,1.7,5.1,1.3l6.7-1.3l0.8-15.7l-6.3-11.9l-13.2,2.7l-6.5,12.5
				l0.9,7.9l3.1,3.8L206.8,178.2z"/>
			<path id="XMLID_1539_" class="st8" d="M197,184.1c5.1,16.1,20.1,17.4,17.8,0c14,0.8,17.9,0.7,17.8,21.8c0.3,2.8-7.2,4-8.4,2.2
				c0,0,1.2,6.1-0.3,8.4c-1.5,2.3-1.6,1.5-1.6,1.5c-0.5,16,1.1,25.5,5.2,27.4l8.5,9.6l-46.4-2.9c0,0,4.8-18.1,4.9-23.1
				c0.1-5-3.8-11.5-3.8-14s0.8-4.7,0-7.3c-1.3-4.1-12.5-3.2-12.8-1.6C178.8,185.2,181.3,187.2,197,184.1z"/>
			<path id="XMLID_1538_" class="st9" d="M200.5,259.4c1.7,1.3,3.2-0.2,1.7-1.7l-3.5-3.3"/>
			<path id="XMLID_1537_" class="st10" d="M201.6,257.2c1.8,2.2,3.5,1.3,1.4-1.2l-3.8-4.2c0,0,2,0.6,2.8,0.6c0.8,0,2.4-0.7,1.6-1.5
				s-2.4-0.5-3.2-0.6c-0.8-0.1-2.4-2.4-3.5-2.6c-1.1-0.1-12.4-20.5-12.4-20.5c1.9-6.8,3.1-14.1,3.4-21.7l-3.1-5.5l-5.4,5.1
				c0,0-2.3,19.6-1.8,21.6c0.5,2,14.5,24.8,14.5,24.8c0.5,3.9,2.7,7.4,6,10.6c0,0,1,0.9-0.5-2.7c-1.5-3.6-1.3-3.1-1.3-3.1l3.3,4.5
				c0.9,1.4,2.2,0.5,1.1-1l-3.4-4.1"/>
			<path id="XMLID_1536_" class="st10" d="M226.6,208.9c0,0,0.2,14.2,0.9,22.2c0.7,8.1,4.9,15.7,4.9,15.7l4.9,1.3
				c0,0,0.3-12.2-1.4-18.6s-2.7-11.6-2.7-15.2s-1.3-8.2-1.3-8.2L226.6,208.9z"/>
			<path id="XMLID_1535_" class="st10" d="M232.9,247c0,0-0.3,10.6,0,10.7c0.3,0.1,1.3,0.3,1.3-1.6c0-1.9,0-1.9,0-1.9
				c1.8,2.7,2.2,4.8,1.6,6.4c0,0,1,1.5,1.9,1.8c4,1.4,3.2-12.4-0.5-14.4l-1.7-2.6L232.9,247z"/>
			<rect id="XMLID_1534_" x="182.3" y="249.8" class="st3" width="2.6" height="77.1"/>
			<path id="XMLID_1533_" d="M191.5,162.6c-1-4.5-0.4-9.2,4.1-14.2c-0.2-3.3,23.2-3.7,20.4,7c3.9,3.8,6,9.2,4.5,17.7
				c1.6,1.9,4.1,3.1,7.4,3.5c2.4,0.6,3.5,7.5-2.1,9l-9.4-1.3l-4.7-4.6c5.7-4.4,6.8-12.3,4.1-22.9c-7.7-0.2-17.7-2.4-14.4,7.7
				c1,0.7,0,2.6-3.3,8c-0.6,1.9,0.1,2.9,2.3,3.1c-0.6,4-1.7,7.1-3.5,8.7c-3.7,3.5-21.5,0.8-9.1-8.1c-0.5,0.1-0.3-4.7,0.2-4.9
				C185.2,168.2,186.3,165.4,191.5,162.6z"/>
		</g>
		<g id="XMLID_1047_">
			<path id="XMLID_1144_" class="st11" d="M157.3,332.6v9.3l11.1,1.2l1.6-3.3c-1.9-3.1-3-6.4-3.5-9.8l-3.6-3.2L157.3,332.6z"/>
			<path id="XMLID_1143_" class="st11" d="M144.7,349.3c-0.5,2.5,0,4.5,1.5,6l4.6,4.5l8.2-5.8c-2.8-3-5-5.9-6-8.7l-4.8-2
				L144.7,349.3z"/>
			
				<rect id="XMLID_1142_" x="111.6" y="294" transform="matrix(0.9975 -7.028415e-002 7.028415e-002 0.9975 -22.5399 8.7551)" class="st0" width="3.1" height="61.4"/>
			<rect id="XMLID_1141_" x="65" y="268.4" class="st0" width="2.9" height="75.9"/>
			<path id="XMLID_1140_" class="st4" d="M76.8,282.3l-10.2,3.4c0,0-0.5,1.5,0,2.4c0.5,1,44,7.9,46.5,7.4c2.6-0.5,31.3-8.4,31.3-8.4
				l-1.4-13.3l-5.2,3.9L76.8,282.3z"/>
			<polygon id="XMLID_1139_" class="st4" points="70.4,239.4 58.9,240.3 60.5,269.9 78.6,266.3 80.4,239.4 			"/>
			<path id="XMLID_1138_" class="st12" d="M76.4,182.6c-17,3-24.9,15.6-13.3,24.2c0,0,2.2,13.7,4.5,17.9s2.7,4.3,2.7,4.3l-0.6,29.5
				h34.4l8.7-4.9l-2.2-28.5c7.8,10.8,19.1,16.4,31.5,21.5l3.6-7.9c-29.6-22.5-31.5-42.6-38.1-47.7c-4-3.6-7.9-5.9-11.7-6.6
				c-0.4-2-1.5-2.7-2.7-3.4l-14.2-1.6c-1.9-0.6-2.9,0.1-2.2,3.3"/>
			<path id="XMLID_1137_" class="st13" d="M98.1,184.8l6-7.3l9.8,4.5l-6.1,8.9c0,0-20.4,28.2-22.5,27.9c-2.1-0.3-22.1-12-22.1-12
				s13.3,5.7,16.9,5.5s24.1-24.3,24.1-24.3C102.3,186.6,100.3,185.5,98.1,184.8z"/>
			<path id="XMLID_1136_" class="st14" d="M104.9,177.4c0,0,1.8-2.6,2.1-4c0.3-1.4,0-6.8,0-6.8s0.7-1.6,2.5-3.4
				c1.9-1.8,3.9-7.4,4.6-8.1c0.7-0.7,1,0.2,1,0.2c2.6-2.5,6.7,0.3,3.5,3.9c1.3,1.9,1.7,3.7,0.3,5.2l-3.3,5.3
				c-0.8,4-2.4,7.6-4.9,10.8l-6.1-2.8L104.9,177.4z"/>
			<path id="XMLID_1135_" class="st14" d="M145.5,239.4c0,0,6.1,3.1,8.1,5.8c2,2.7,6.1,5.1,7.2,5.3c1,0.2,2.6,3.2,0.6,3.4
				s-6.9-1.9-10.5-4.1S144,245,144,245l-0.9-0.5L145.5,239.4z"/>
			<path id="XMLID_1134_" class="st15" d="M70.5,258.4c-1.8,27.3,13.9,33.9,41.7,30.2c0,0,3.2,0.2,7.8,11.6
				c4.5,11.5,18.6,46.7,21.3,48.3c5.5,3.2,15.8-5.4,13.6-7.6l-22.8-62.4c0-3.2,6.2-1.9,9.2,1.9c3.5,20.6,7.8,38.8,13.9,52.2
				c6.9-0.3,12-1.7,13.2-5.5c-3.3-19.1-4.9-38.6-4-58.9c0,0-4.5-7.9-9.3-9.9c-4.8-2.1-8-2.4-8-2.4l-34.1-2.5l-34.1,2.9L70.5,258.4z"
				/>
			<path id="XMLID_1133_" class="st16" d="M157.3,341.9c-0.6,2.7-0.7,5.1,0,7.1l16.3-0.2l0.3,1.5c0,0,15.6,0.7,16.9-0.3
				c1.4-1,1.3-1.9-0.4-2.3c-1.7-0.4-8.6-2.2-11.1-4.2c-2.5-2-5.3-3.6-6.8-3.9c-1.5-0.2-2.5-0.2-2.5-0.2L157.3,341.9z"/>
			<path id="XMLID_1132_" class="st16" d="M146.1,355.3v7.9c17.9,8.8,32.5,9.4,30.1,2.1c-6.6-2.7-12.5-6.3-17.3-11.3L146.1,355.3z"
				/>
			<g id="XMLID_1125_">
				<path id="XMLID_4023_" class="st17" d="M69.2,178.8l-0.2,2.8l6.9,10.6c6.4,1.5,11.2,1.5,13.9-0.5l2-7.9L69.2,178.8z"/>
				<polygon id="XMLID_4022_" class="st17" points="70.5,179.4 63.3,167.4 68.1,164.4 74.3,169.4 76.4,177.9 75.3,181.6 				"/>
				<path id="XMLID_4021_" class="st18" d="M70,182.2c2.9,5.3,7.4,8.8,12.8,11.1l0,0.3l-0.6,4.9c-8.6-3.3-14.2-7.8-16.1-14.3
					l3.1-2.7L70,182.2z"/>
				<path id="XMLID_4020_" class="st18" d="M90.9,181c2.6,4.7,2.8,9.7-0.8,15.2c-0.7-2.4-1.5-4.3-2.5-5.1l1.3-10.4L90.9,181z"/>
				<path id="XMLID_4018_" class="st14" d="M73.7,174c2.7,12.6,8,14.4,14.5,10.5c2.7-6,4.1-12.8,3.6-20.6l-0.3-5.5l-15.3-4.7
					l-4.3,8.9L73.7,174z"/>
				<path id="XMLID_4017_" class="st19" d="M70.8,168.2l2.9,5.8l1.5-12.2c5.9-4.7,11.3-5.7,16.3-3.3c-1.6-23.2-50.9-11.3-22.4,20.8
					c1.5,0.8,2.1-0.1,2.2-1.7l-4.2-5.8C65.2,166.7,69.1,165.2,70.8,168.2z"/>
			</g>
			<path id="XMLID_1124_" class="st18" d="M98.1,184.8l-21.7,22.8l-2,3.4c3.7,1.4,6.5,1.7,7.8,0c7.2-6.3,14.5-14.3,22-23.1
				L98.1,184.8z"/>
		</g>
	</g>
	<g id="XMLID_1757_">
		<g id="XMLID_1121_">
		</g>
		<g id="XMLID_1122_">
			<path id="XMLID_1674_" class="st20" d="M359.4,102.4c6.3,4.3,3.7,22.4,1,41.3l4.2,0.5c3.4-25.7,7-40.6-6.3-46.9l-9.2,1.8
				L359.4,102.4z"/>
			<path id="XMLID_1532_" class="st21" d="M344.1,70.2c-14.5,4.3-20.2,38.1-8.1,45.9c5.6,7.3,27.5,5.4,23.8-13.3
				c-2.1-4.2-1.2-8.2,2.4-12C372.6,77.4,358,64.1,344.1,70.2z"/>
			<path id="XMLID_1675_" class="st22" d="M341,69.8c-14.5,4.3-20.2,38.1-8.1,45.9c5.6,7.3,27.5,5.4,23.8-13.3
				c-2.1-4.2-1.2-8.2,2.4-12C369.5,77.1,354.9,63.8,341,69.8z"/>
		</g>
		<g id="XMLID_1677_">
			<path id="XMLID_1680_" class="st20" d="M381.6,105c-7.2,2.8-8.8,21-10.5,40l-4.3-0.5c2.6-25.8,2.5-41.1,17-44.2l8.6,3.8
				L381.6,105z"/>
			<path id="XMLID_1679_" class="st21" d="M404,77.1c13.2,7.6,11,41.7-2.7,46.5c-7.1,5.8-28.2-1.1-20.3-18.4c3.1-3.6,3-7.7,0.4-12.2
				C374.3,77.6,391.8,68.1,404,77.1z"/>
			<path id="XMLID_1678_" class="st22" d="M407.1,77.5c13.2,7.6,11,41.7-2.7,46.5c-7.1,5.8-28.2-1.1-20.3-18.4
				c3.1-3.6,3-7.7,0.4-12.2C377.5,78,394.9,68.4,407.1,77.5z"/>
		</g>
	</g>
	<path id="XMLID_1758_" class="st23" d="M410,165.7l-100.1-9.9c-0.9-0.1-1.6-0.9-1.5-1.8l0.2-2c0.1-0.9,0.9-1.6,1.8-1.5l100.1,9.9
		c0.9,0.1,1.6,0.9,1.5,1.8l-0.2,2C411.7,165.1,410.9,165.8,410,165.7z"/>
	<path id="XMLID_1760_" class="st23" d="M404.2,195.3L304,185.4c-0.9-0.1-1.6-0.9-1.5-1.8l0.2-2c0.1-0.9,0.9-1.6,1.8-1.5l100.1,9.9
		c0.9,0.1,1.6,0.9,1.5,1.8l-0.2,2C405.9,194.7,405.1,195.4,404.2,195.3z"/>
	<path id="XMLID_1761_" class="st23" d="M396.2,226.6l-100.1-9.9c-0.9-0.1-1.6-0.9-1.5-1.8l0.2-2c0.1-0.9,0.9-1.6,1.8-1.5l100.1,9.9
		c0.9,0.1,1.6,0.9,1.5,1.8l-0.2,2C397.9,226,397.1,226.7,396.2,226.6z"/>
	<g id="XMLID_2_">
		<path id="XMLID_336_" class="st24" d="M371.5,206.6l-3.6-6.6l-6.4-5.3l-10.5,1.3c-0.9,1.1,0.3,1.6,2.2,2l3.5,0l3.8,0.1l0.8,1.4
			c0,0,1.6,4.2,0.6,3.5c-0.2-0.1-0.4-0.3-0.6-0.5l-2.8,1.9c0.1,0.3,0.2,0.6,0.2,0.9c2.2,5,4.5,7.5,7.2,6.4l9.6,9.4l5.2-8.2
			L371.5,206.6z"/>
		<path id="XMLID_335_" class="st25" d="M447,204.3c4,4.2,9.6,5.6,15,3.7l-7.6,46.2l0.3,31l-24.6-8.2l5.6-58.4L447,204.3z"/>
		<path id="XMLID_334_" class="st24" d="M466.7,329.2c0,0,1.1,5.9,1.3,8.3s1.7,18.4,1.8,23c0.1,4.6-0.6,11.8-1.3,14.8
			c-0.6,2.9-4,10.7-4,10.7l4.7,2.5h3.5l6.9-11.9l-1.2-3.5c-1.5-1.5-1.6-4.6,0.2-9.9c4.7-15.8,5.3-27.3,1.6-34.4l-6.3-1.9
			L466.7,329.2z"/>
		<path id="XMLID_333_" class="st24" d="M429.6,326.9l0,44.8c-1.5,2.1-2.1,4.2-1.6,6.1c-1.9,3.5-4,6.5-6.6,8.4v2.9h2.5l16-15.1
			v-11.1c3.7-14,5.2-26.1,0.6-35.8"/>
		<path id="XMLID_201_" class="st26" d="M421.1,329.6l9.4-52.6c6.7,0.7,16.9,3.6,21.5,2.3v3.1c0.3,1.8,1.4,2.5,2.9,2.8
			c10,0.1,20.6-1,31.7-2.2c0.9,8.5,0.4,17.8-2.7,28.5l-0.6,18h-30.8c0,0-0.3-1.8-0.3-1.7s-0.5,1.6-0.5,1.6L421.1,329.6z"/>
		<path id="XMLID_196_" class="st27" d="M453.3,179.6l9.7,4.2l2.4,26.2c-7.5-0.2-14.5-0.9-18.1-5.1L453.3,179.6z"/>
		<path id="XMLID_156_" class="st24" d="M444,162.4c-1.1,1.5-1.7,2.9-1.9,4.4c0.2,4.3-0.9,7.7-3.8,9.9c-0.2,1.2,0.8,2,2.7,2.4
			c-0.3,4.6,0,8.7,1.4,11.6c0.5,1.2,1.9,1.2,3.4,0.9c4.4-0.7,7.9-2.1,10.3-4.4c0.8-1.2,1.3-2.8,1.5-4.6l7.5,1.6l2.3-15.2L444,162.4z
			"/>
		<polygon id="XMLID_155_" class="st28" points="477.5,230.4 475.5,243 480.9,240.4 		"/>
		<path id="XMLID_154_" d="M443.7,159c1.8-3.2,4.3-5.1,7.6-5.2c13.6-4,29,4.6,26.5,21.2l-4,27.1c-6,3.4-12,4.9-18.2,3.6l3.1-23
			c3-0.8,5.4-2.2,6.5-4.8c0.9-7.5-1.3-8.5-5.1-5.9l-1.5,8.3C449.6,175.9,443.9,169.6,443.7,159z"/>
		<path id="XMLID_153_" d="M442.5,191l-2.4,8.7c4.5,2.1,10.9,4.5,13.2,2.9c-1.3-6.5,0-14.8-10.2-10.9
			C442.9,191.6,442.7,191.4,442.5,191z"/>
		<path id="XMLID_152_" class="st29" d="M421.4,386.2c-3,2.9-6.4,4.3-10.3,3.5c-1.8,1.5-2.2,2.8,0.2,3.3l16.5-0.4
			c4.3-5.6,8.2-8.9,11.1-7.6v7.2h1.2l0-7.5c3.2-3,3.7-6.1,0.3-9.1l-0.5-1.5l-5.7,0.4l-9,11l-1.9,2.2L421.4,386.2z"/>
		<path id="XMLID_151_" class="st29" d="M463.8,385.7c2.2-0.8,4.2-0.4,5.9,2.5l3.3-0.4l5.9-10.4l-0.4-4.1c1.6,1.4,2.9,3.2,2.2,6.7
			l-3,3.7v5.7h-1.1l0-4l-1.6,1.4l-0.2,4.6l-15.1,1.6c-1.7-0.9-1.5-1.7,0-2.4C461.6,389.6,462.9,388,463.8,385.7z"/>
		<path id="XMLID_150_" class="st30" d="M461.4,206.2c-10,25.1-11.2,48.6-9.4,73.2c-0.4,5.3,1.5,6.5,5.9,5.9l29.9-2.1
			c0.1-7-2.4-14.3-5.1-21.7c4,0.3,7.7-0.5,11.1-2.1c6-0.4,9.1-3.9,8.1-11l-13.5-42.9c-3.3-4.5-8.3-5.2-14.5-3.3
			C470,204.4,466,206,461.4,206.2z"/>
		<polyline id="XMLID_144_" class="st30" points="412.1,230.7 379,209.9 372.6,220.3 406.1,237.7 		"/>
		<path id="XMLID_142_" class="st30" d="M442.1,204.3c-0.8,0.1-5.9,1-5.9,1c-8.7,8.4-18.4,15.9-29.1,22.4c0,0,0,0-0.1,0l-1.9,9.7
			c0,0,0,0,0,0c1.6,0.9,3.5,1,5.1,0.2l17.9-5.5c0.9,2.6,0.3,43.9,2,45.4l18.2-74.4C448.4,203.1,442.9,204.2,442.1,204.3z"/>
		<g id="XMLID_139_">
			<path id="XMLID_141_" class="st31" d="M402.8,230.9l19-2.1c1.5,5.5,2.1,10.8,0.9,15.7c4.8-1.7,9.7-2.3,14.8-1.5l1.8,29.9l-33.6,4
				L402.8,230.9z"/>
			<path id="XMLID_140_" class="st32" d="M421.7,228.8c1.6,5.6,2.1,10.9,0.9,15.7c4.9-1.7,9.9-2.3,14.8-1.5
				C433.2,236.9,428.1,232,421.7,228.8z"/>
		</g>
		<path id="XMLID_138_" class="st24" d="M444.7,255.4l7.3-1.5l13.3-4.1l2.7,10.4l-20.7,3c-2.3,0.7-4.9,0.1-7.7-1.4
			c0,0-2.8,1.3-3,1.4s-3.4,2.8-3.4,2.8c-1.4,0.2-2.1-0.1-1.6-1.1l3.1-4l2.5-1.1c0,0,0.3-0.3-0.4-0.2c-0.7,0.2-3.4,1.4-3.4,1.4
			l-2.8,3.2c-1.2,0.1-2.2,0-1.7-1.2l3.6-4.6l2.8-1.9c0,0-0.1-0.3-0.7,0c-0.6,0.3-3.2,1.4-3.2,1.4l-3.4,3.5c-1.2,0.1-2.4,0.3-1.6-0.9
			l3.2-4.6l3.9-2.3c0,0-3.6-0.4-5.2-0.2s-2.9,0.2-2.9,0.2c-1-0.1-1.4-0.7-1-1.6l4.7-1.3c0,0,0.6-0.2,1.4-0.2s5.1,0.4,5.1,0.4
			L444.7,255.4z"/>
		<g id="XMLID_132_">
			<polygon id="XMLID_137_" class="st4" points="370.4,197.6 371.2,197.2 370.1,195.2 369.2,195.6 			"/>
			<polygon id="XMLID_136_" class="st33" points="350.5,207.3 348.7,207.9 350.2,206.6 			"/>
			<polygon id="XMLID_135_" class="st34" points="352.8,206.9 350.5,207.4 350.5,207.3 350.1,206.6 351.6,204.9 			"/>
			<polygon id="XMLID_134_" class="st35" points="370.5,197.7 352.8,207 351.6,204.9 369.3,195.5 			"/>
			<polygon id="XMLID_133_" class="st32" points="370.1,197.8 369,195.7 369.3,195.5 370.5,197.7 370.1,197.8 			"/>
		</g>
		<path id="XMLID_131_" class="st24" d="M359.1,200.4c-2.6-1.4-5.1-0.1-2.9,1.8c1,0.6,1.7,1.3,2.1,2.2l2.8-1.8
			C360.3,201.7,359.1,200.4,359.1,200.4z"/>
		<g id="XMLID_58_">
			<g id="XMLID_99_">
				<g id="XMLID_102_" class="st36">
					<defs>
						<polygon id="XMLID_161_" class="st36" points="457.8,222.1 458.3,218.4 469.7,219.4 469.2,223.1 						"/>
					</defs>
					<clipPath id="XMLID_10_">
						<use xlink:href="#XMLID_161_"  style="overflow:visible;"/>
					</clipPath>
					<g id="XMLID_104_" class="st37">
						<g id="XMLID_105_">
							<g id="XMLID_106_">
								<g id="XMLID_107_">
									<path id="XMLID_160_" class="st38" d="M459.1,219.4c-0.6-0.1-1,0.6-1.1,1.3c-0.1,0.7,0.1,1.4,0.8,1.4c0.1,0,0.3,0,0.4,0
										c0.5-0.2,0.4-0.6,0.2-0.6c0,0-0.1,0-0.1,0c-0.1,0.1-0.3,0.1-0.4,0.1c-0.3,0-0.5-0.4-0.4-0.8c0.1-0.4,0.3-0.8,0.6-0.8
										c0.1,0,0.2,0,0.2,0.1c0,0,0,0,0.1,0c0.1,0,0.1,0,0.2-0.1c0.1-0.2,0.1-0.4-0.1-0.5C459.4,219.5,459.2,219.4,459.1,219.4"/>
									<path id="XMLID_159_" class="st38" d="M462.4,219.7c-0.1,0-0.2,0.1-0.2,0.3l-0.2,2c0,0.2,0.1,0.3,0.2,0.3
										c0.1,0,0.2-0.1,0.2-0.2l0.2-2C462.6,219.8,462.5,219.7,462.4,219.7"/>
									<path id="XMLID_158_" class="st38" d="M464.4,219.8c-0.1,0-0.2,0.1-0.3,0.2l-0.4,1.5l-0.2-1.5c0-0.1-0.1-0.2-0.2-0.2
										c-0.1,0-0.2,0.1-0.3,0.2l-0.4,1.8c-0.1,0.2,0,0.4,0.2,0.4c0.1,0,0.2-0.1,0.2-0.3l0.3-1.4l0.1,1.6c0,0.1,0.1,0.2,0.2,0.2
										c0.1,0,0.2-0.1,0.2-0.2l0.5-1.5l0,1.5c0,0.1,0.1,0.2,0.2,0.2c0.1,0,0.2-0.1,0.2-0.3l0-1.9
										C464.7,219.9,464.6,219.8,464.4,219.8"/>
									<path id="XMLID_157_" class="st38" d="M466,219.9l-0.7,0c-0.1,0-0.2,0.1-0.2,0.2l-0.2,1.9c0,0.1,0,0.2,0.1,0.2c0,0,0,0,0,0
										l0.7,0c0.2,0,0.3-0.4,0-0.5l-0.5,0l0-0.5l0.4,0c0.3,0,0.3-0.4,0-0.5l-0.4,0l0.1-0.5l0.5,0C466.2,220.3,466.3,220,466,219.9
										"/>
									<path id="XMLID_112_" class="st38" d="M466.8,221l0.1-0.6l0.3,0c0.2,0.1,0.2,0.5-0.1,0.6L466.8,221 M467.3,219.9l-0.7,0
										c-0.1,0-0.1,0.1-0.2,0.3l-0.2,1.9c0,0.1,0.1,0.2,0.2,0.2c0.1,0,0.2-0.1,0.2-0.2l0.1-0.8l0.5,0.9c0,0,0.1,0.1,0.1,0.1
										c0.1,0,0.3-0.2,0.2-0.4l-0.4-0.7C467.9,221.2,467.9,220,467.3,219.9"/>
									<path id="XMLID_109_" class="st38" d="M468.4,221.4l0.3-0.9l0.1,0.9L468.4,221.4 M468.8,219.9c-0.1,0-0.3,0.1-0.4,0.3
										l-0.7,1.7c-0.1,0.2,0,0.4,0.1,0.4c0.1,0,0.1,0,0.2-0.1l0.1-0.3l0.7,0l0,0.2c0,0.2,0.1,0.2,0.2,0.2c0.1,0,0.3-0.1,0.2-0.4
										l-0.3-1.8C469,220.1,468.9,220,468.8,219.9"/>
									<path id="XMLID_108_" class="st39" d="M461.7,218.7c-0.2,0-0.4,0.1-0.4,0.3l0,0.4l0,0l0.1,0.1l0.1,0.3l0.1,0.2
										c0,0.1,0,0.1,0,0.1c0,0,0,0-0.1-0.1l-0.1-0.3l0,0c0,0,0.1,0.2,0.2,0.4c0,0.1,0,0.2,0,0.2c0,0-0.1,0-0.1-0.1l-0.1-0.2
										l-0.1-0.3l0,0l0.1,0.5c0,0.1,0,0.2,0,0.2c0,0-0.1,0-0.1-0.1c0,0-0.1-0.3-0.1-0.4c0-0.1,0-0.1,0-0.1l0,0.1l0.1,0.4
										c0,0.1,0,0.1-0.1,0.1c0,0,0,0-0.1-0.1l-0.1-0.3l-0.1-0.3l-0.2,0c-0.1,0.1-0.1,0.2-0.2,0.2l-0.1-0.1
										c0.1-0.2,0.2-0.3,0.3-0.5l0.1-0.5c0-0.3-0.1-0.4-0.3-0.4c-0.2,0-0.4,0.1-0.4,0.4l-0.3,2.7c0,0.3,0.2,0.4,0.3,0.4
										c0.2,0,0.3-0.1,0.4-0.4l0-0.4l0-0.1l-0.1-0.2l-0.1-0.1l-0.1-0.3l0.1-0.1l0.2,0.3l0,0l-0.2-0.5c0-0.1,0-0.1,0-0.1
										c0,0,0,0,0.1,0.1l0.2,0.4l0,0l0-0.1l-0.1-0.5l0.1-0.1c0,0.1,0.1,0.3,0.2,0.5c0,0.1,0,0.1,0,0.1c0,0,0,0,0,0l0-0.1l0-0.1
										c0,0,0-0.2,0-0.4c0-0.1,0-0.1,0.1-0.1c0,0,0,0,0,0c0,0,0.1,0.4,0.1,0.5c0,0.1,0.1,0.2,0.1,0.2l0.2,0l0-0.1l0.1-0.2
										c0,0,0.1-0.1,0.1-0.1c0.1,0,0.1,0.1-0.1,0.3c-0.1,0.1-0.1,0.2-0.1,0.2l-0.1,0.6c0,0.3,0.1,0.4,0.3,0.4
										c0.2,0,0.4-0.1,0.4-0.4l0.3-2.8C462,218.8,461.9,218.7,461.7,218.7"/>
								</g>
							</g>
						</g>
					</g>
				</g>
			</g>
		</g>
	</g>
</g>
<g id="XMLID_1_">
</g>
<g id="XMLID_3_">
</g>
<g id="XMLID_4_">
</g>
<g id="XMLID_5_">
</g>
<g id="XMLID_7_">
</g>
<g id="XMLID_8_">
</g>
</svg>
