<?xml version="1.0" encoding="utf-8"?>
<!-- Generator: Adobe Illustrator 19.0.0, SVG Export Plug-In . SVG Version: 6.00 Build 0)  -->
<svg version="1.0" id="Layer_1" xmlns="http://www.w3.org/2000/svg" xmlns:xlink="http://www.w3.org/1999/xlink" x="0px" y="0px"
	 viewBox="0 0 339.3 316.7" style="enable-background:new 0 0 339.3 316.7;" xml:space="preserve">
<style type="text/css">
	.st0{fill:#404040;}
	.st1{fill:none;stroke:#FFFFFF;stroke-miterlimit:10;}
	.st2{fill:#AE2025;stroke:#FFFFFF;stroke-miterlimit:10;}
	.st3{fill:#7E1718;stroke:#FFFFFF;stroke-miterlimit:10;}
	.st4{fill:#FFFFFF;stroke:#000000;stroke-miterlimit:10;}
	.st5{fill:#8D8D8C;}
	.st6{fill:#FFFFFF;}
	.st7{fill:#FFFFFF;stroke:#3C3C3B;stroke-miterlimit:10;}
	.st8{fill:#CE232A;stroke:#FFFFFF;stroke-miterlimit:10;}
	.st9{fill:none;}
	.st10{fill:#3C3C3B;}
</style>
<g id="XMLID_110_">
	<path id="XMLID_64_" class="st0" d="M294.1,175c-0.4,8-11.4,14.4-13.3,21.9c-1.9,7.8,4.7,18.6,1.4,25.6c-3.4,7.2-16,8.9-20.7,15.2
		c-4.7,6.4-2.7,18.9-8.6,24.2c-5.9,5.3-18.1,2-24.9,6.1c-6.7,4-9.7,16.4-17.2,19.1c-7.4,2.6-17.4-5.1-25.4-3.9
		c-7.7,1.1-15.1,11.4-23.2,11c-8-0.4-14.4-11.4-21.9-13.3c-7.8-1.9-18.6,4.7-25.6,1.4c-7.2-3.4-8.9-16-15.2-20.7
		c-6.4-4.7-18.9-2.7-24.2-8.6c-5.3-5.9-2-18.1-6.1-24.9c-4-6.7-16.4-9.7-19.1-17.2c-2.6-7.4,5.1-17.4,3.9-25.4
		c-1.1-7.7-11.4-15.1-11-23.2c0.4-8,11.4-14.4,13.3-21.9c1.9-7.8-4.7-18.6-1.4-25.6c3.4-7.2,16-8.9,20.7-15.2
		c4.7-6.4,2.7-18.9,8.6-24.2c5.9-5.3,18.1-2,24.9-6.1c6.7-4,9.7-16.4,17.2-19.1c7.4-2.6,17.4,5.1,25.4,3.9
		c7.7-1.1,15.1-11.4,23.2-11c8,0.4,14.4,11.4,21.9,13.3c7.8,1.9,18.6-4.7,25.6-1.4c7.2,3.4,8.9,16,15.2,20.7
		c6.4,4.7,18.9,2.7,24.2,8.6c5.3,5.9,2,18.1,6.1,24.9c4,6.7,16.4,9.7,19.1,17.2c2.6,7.4-5.1,17.4-3.9,25.4
		C284.2,159.5,294.5,166.9,294.1,175z"/>
	<path id="XMLID_63_" class="st1" d="M294.1,175c-0.4,8-11.4,14.4-13.3,21.9c-1.9,7.8,4.7,18.6,1.4,25.6c-3.4,7.2-16,8.9-20.7,15.2
		c-4.7,6.4-2.7,18.9-8.6,24.2c-5.9,5.3-18.1,2-24.9,6.1c-6.7,4-9.7,16.4-17.2,19.1c-7.4,2.6-17.4-5.1-25.4-3.9
		c-7.7,1.1-15.1,11.4-23.2,11c-8-0.4-14.4-11.4-21.9-13.3c-7.8-1.9-18.6,4.7-25.6,1.4c-7.2-3.4-8.9-16-15.2-20.7
		c-6.4-4.7-18.9-2.7-24.2-8.6c-5.3-5.9-2-18.1-6.1-24.9c-4-6.7-16.4-9.7-19.1-17.2c-2.6-7.4,5.1-17.4,3.9-25.4
		c-1.1-7.7-11.4-15.1-11-23.2c0.4-8,11.4-14.4,13.3-21.9c1.9-7.8-4.7-18.6-1.4-25.6c3.4-7.2,16-8.9,20.7-15.2
		c4.7-6.4,2.7-18.9,8.6-24.2c5.9-5.3,18.1-2,24.9-6.1c6.7-4,9.7-16.4,17.2-19.1c7.4-2.6,17.4,5.1,25.4,3.9
		c7.7-1.1,15.1-11.4,23.2-11c8,0.4,14.4,11.4,21.9,13.3c7.8,1.9,18.6-4.7,25.6-1.4c7.2,3.4,8.9,16,15.2,20.7
		c6.4,4.7,18.9,2.7,24.2,8.6c5.3,5.9,2,18.1,6.1,24.9c4,6.7,16.4,9.7,19.1,17.2c2.6,7.4-5.1,17.4-3.9,25.4
		C284.2,159.5,294.5,166.9,294.1,175z"/>
</g>
<polygon id="XMLID_109_" class="st2" points="33.4,175.9 5.6,180 26.5,203.1 16.8,229.3 64.3,221.6 44,175.9 "/>
<polygon id="XMLID_108_" class="st3" points="40.9,209.3 64.3,221.6 73.5,196.4 "/>
<polygon id="XMLID_107_" class="st2" points="293.2,139.9 321.3,136.2 311.5,163.2 331.5,185.3 284,191.9 256.3,166.6 "/>
<polygon id="XMLID_53_" class="st3" points="300.7,173.3 283.6,191.7 256.3,173.3 "/>
<circle id="XMLID_52_" class="st4" cx="168.6" cy="168.5" r="111.5"/>
<circle id="XMLID_49_" class="st5" cx="168.6" cy="168.5" r="64.2"/>
<circle id="XMLID_48_" class="st5" cx="168.6" cy="168.5" r="64.2"/>
<circle id="XMLID_114_" class="st6" cx="168.6" cy="168.5" r="61.5"/>
<circle id="XMLID_113_" class="st7" cx="168.6" cy="168.7" r="55"/>
<polygon id="XMLID_46_" class="st8" points="300.7,173.3 40.9,209.3 29.5,158.4 289.3,122.5 "/>
<g id="XMLID_45_">
	<path id="XMLID_24_" class="st6" d="M91.1,182.9l-6.5,0.9l-0.4,4.1l-5.8,0.8l3.6-24.9l6.2-0.9l10.3,23l-6,0.8L91.1,182.9z
		 M89.2,177.9l-3.2-8.3l-0.8,8.9L89.2,177.9z"/>
	<path id="XMLID_238_" class="st6" d="M110.9,174.2l5.3,1.3c-0.1,1.9-0.4,3.5-1,4.8c-0.6,1.3-1.3,2.4-2.3,3.1s-2.3,1.3-4,1.5
		c-2,0.3-3.7,0.1-5.1-0.5c-1.4-0.6-2.7-1.8-3.9-3.5c-1.2-1.8-2-4.2-2.4-7.1c-0.5-4-0.2-7.1,1.2-9.5c1.3-2.4,3.5-3.7,6.5-4.2
		c2.3-0.3,4.3,0,5.8,1.1c1.5,1,2.8,2.8,3.8,5.2l-4.9,2.2c-0.3-0.7-0.5-1.2-0.8-1.5c-0.4-0.5-0.9-0.9-1.4-1.1c-0.5-0.2-1-0.3-1.6-0.2
		c-1.3,0.2-2.2,1-2.7,2.4c-0.4,1.1-0.4,2.7-0.1,4.8c0.4,2.7,0.9,4.4,1.7,5.3c0.8,0.9,1.7,1.3,2.8,1.1c1.1-0.2,1.9-0.7,2.3-1.5
		C110.6,177,110.9,175.8,110.9,174.2z"/>
	<path id="XMLID_240_" class="st6" d="M131.1,171.5l5.3,1.3c-0.1,1.9-0.4,3.5-1,4.8c-0.6,1.3-1.3,2.4-2.3,3.1s-2.3,1.3-4,1.5
		c-2,0.3-3.7,0.1-5.1-0.5c-1.4-0.6-2.7-1.8-3.9-3.5c-1.2-1.8-2-4.2-2.4-7.1c-0.5-4-0.2-7.1,1.2-9.5c1.3-2.4,3.5-3.7,6.5-4.2
		c2.3-0.3,4.3,0,5.8,1.1c1.5,1,2.8,2.8,3.8,5.2l-4.9,2.2c-0.3-0.7-0.5-1.2-0.8-1.5c-0.4-0.5-0.9-0.9-1.4-1.1c-0.5-0.2-1-0.3-1.6-0.2
		c-1.3,0.2-2.2,1-2.7,2.4c-0.4,1.1-0.4,2.7-0.1,4.8c0.4,2.7,0.9,4.4,1.7,5.3c0.8,0.9,1.7,1.3,2.8,1.1c1.1-0.2,1.9-0.7,2.3-1.5
		C130.8,174.2,131,173,131.1,171.5z"/>
	<path id="XMLID_242_" class="st6" d="M140.3,180.2l-3.3-24l9.5-1.3c1.8-0.2,3.2-0.2,4.1,0c1,0.3,1.8,0.9,2.6,1.9
		c0.7,1,1.2,2.2,1.4,3.8c0.2,1.3,0.1,2.5-0.2,3.5c-0.3,1-0.8,1.9-1.5,2.6c-0.4,0.4-1.1,0.9-1.9,1.2c0.7,0.2,1.3,0.4,1.6,0.7
		c0.2,0.2,0.6,0.5,1.1,1.1s0.8,1,1,1.4l3.7,6.6l-6.5,0.9l-4.1-6.9c-0.5-0.9-1-1.5-1.3-1.7c-0.5-0.3-1-0.4-1.5-0.4l-0.5,0.1l1.3,9.7
		L140.3,180.2z M144.1,165.1l2.4-0.3c0.3,0,0.8-0.2,1.5-0.5c0.4-0.1,0.6-0.4,0.8-0.9c0.2-0.4,0.2-0.9,0.2-1.4
		c-0.1-0.8-0.4-1.3-0.8-1.7c-0.4-0.4-1.2-0.5-2.2-0.3l-2.5,0.3L144.1,165.1z"/>
	<path id="XMLID_245_" class="st6" d="M157.1,153.4l15.4-2.1l0.7,5.1l-9.6,1.3l0.5,3.8l8.9-1.2l0.7,4.9l-8.9,1.2l0.7,4.7l9.9-1.4
		l0.8,5.4l-15.6,2.2L157.1,153.4z"/>
	<path id="XMLID_247_" class="st6" d="M175.8,150.8l8.5-1.2c1.7-0.2,3.1-0.1,4.2,0.3c1.1,0.4,2.1,1.2,2.9,2.2c0.8,1,1.5,2.2,2,3.6
		s0.9,2.9,1.1,4.6c0.4,2.6,0.4,4.6,0.1,6.1c-0.3,1.5-0.7,2.7-1.4,3.8c-0.7,1.1-1.4,1.8-2.3,2.3c-1.2,0.6-2.3,1-3.3,1.1l-8.5,1.2
		L175.8,150.8z M182.3,155.5l1.8,13.1l1.4-0.2c1.2-0.2,2-0.5,2.5-0.9c0.5-0.4,0.8-1.1,0.9-2c0.2-0.9,0.1-2.3-0.1-4.2
		c-0.4-2.5-0.9-4.2-1.7-5.1c-0.8-0.8-1.9-1.2-3.4-1L182.3,155.5z"/>
	<path id="XMLID_250_" class="st6" d="M196.1,148l5.7-0.8l3.3,24l-5.7,0.8L196.1,148z"/>
	<path id="XMLID_252_" class="st6" d="M204.7,146.8l17.4-2.4l0.8,5.9l-5.8,0.8l2.5,18.1l-5.7,0.8l-2.5-18.1l-5.8,0.8L204.7,146.8z"
		/>
	<path id="XMLID_254_" class="st6" d="M224.7,144.1l15.4-2.1l0.7,5.1l-9.6,1.3l0.5,3.8l8.9-1.2l0.7,4.9l-8.9,1.2l0.7,4.7l9.9-1.4
		l0.8,5.4L228,168L224.7,144.1z"/>
	<path id="XMLID_256_" class="st6" d="M243.5,141.5l8.5-1.2c1.7-0.2,3.1-0.1,4.2,0.3c1.1,0.4,2.1,1.2,2.9,2.2c0.8,1,1.5,2.2,2,3.6
		s0.9,2.9,1.1,4.6c0.4,2.6,0.4,4.6,0.1,6.1c-0.3,1.5-0.7,2.7-1.4,3.8c-0.7,1.1-1.4,1.8-2.3,2.3c-1.2,0.6-2.3,1-3.3,1.1l-8.5,1.2
		L243.5,141.5z M250,146.1l1.8,13.1l1.4-0.2c1.2-0.2,2-0.5,2.5-0.9c0.5-0.4,0.8-1.1,0.9-2c0.2-0.9,0.1-2.3-0.1-4.2
		c-0.4-2.5-0.9-4.2-1.7-5.1c-0.8-0.8-1.9-1.2-3.4-1L250,146.1z"/>
</g>
<g id="XMLID_5_">
	
		<ellipse id="XMLID_235_" transform="matrix(-0.6177 0.7864 -0.7864 -0.6177 403.385 150.5942)" class="st9" cx="165.1" cy="173.3" rx="82.8" ry="83.4"/>
	<path id="XMLID_20_" class="st10" d="M255.4,187.4l-0.2,1.2l-8-1.2l0.2-1.2L255.4,187.4z M256.5,185l-0.9,6.1l-1.2-0.2l0.9-6.1
		L256.5,185z"/>
	<path id="XMLID_76_" class="st10" d="M246.3,191.4c0,0,0.2-0.2,0.5-0.5c0.3-0.4,0.7-0.6,1.1-0.7c0.5-0.1,1-0.1,1.6,0l0.7,0.2
		c0.6,0.1,1.1,0.4,1.5,0.6c0.4,0.3,0.6,0.7,0.8,1.1c0.1,0.4,0.1,0.9,0,1.5c-0.1,0.5-0.3,0.9-0.7,1.2c-0.3,0.3-0.8,0.5-1.3,0.6
		s-1.1,0-1.8-0.1l-0.4-0.1l0.9-4.1l1,0.2l-0.7,3c0.5,0.1,0.9,0,1.3-0.1s0.5-0.4,0.6-0.8c0.1-0.5,0-0.8-0.2-1.2
		c-0.2-0.3-0.6-0.5-1.2-0.7l-0.8-0.2c-0.5-0.1-0.9-0.1-1.3,0.1c-0.3,0.2-0.6,0.6-0.7,1c-0.1,0.2-0.1,0.5,0,0.8s0.1,0.5,0.3,0.7
		l-1,0.6c-0.2-0.4-0.4-0.8-0.5-1.2c-0.1-0.4-0.1-0.8,0-1.2C246.3,191.7,246.3,191.4,246.3,191.4z"/>
	<path id="XMLID_147_" class="st10" d="M244.8,197.6c0,0,0.1-0.1,0.2-0.4c0.2-0.3,0.4-0.5,0.6-0.8c0.2-0.2,0.5-0.4,0.7-0.6l0.7,1
		c-0.3,0.2-0.6,0.5-0.8,0.8s-0.4,0.6-0.5,0.9c-0.1,0.5-0.2,0.8-0.1,1.1c0.1,0.3,0.3,0.5,0.5,0.5c0.2,0.1,0.4,0,0.5-0.1
		c0.1-0.1,0.2-0.2,0.3-0.4c0.1-0.2,0.2-0.4,0.3-0.8c0,0,0-0.1,0-0.1c0,0,0-0.1,0-0.1c0,0,0,0,0,0c0,0,0,0,0,0
		c0.1-0.4,0.3-0.7,0.5-0.9c0.2-0.2,0.4-0.4,0.7-0.5c0.3-0.1,0.6-0.1,1.1,0c0.4,0.1,0.8,0.3,1,0.6c0.2,0.3,0.4,0.6,0.4,1
		s0,0.8-0.2,1.3c-0.1,0.3-0.2,0.6-0.4,0.9c-0.1,0.3-0.3,0.5-0.5,0.7c-0.2,0.2-0.4,0.4-0.7,0.6l-0.6-1c0.3-0.2,0.5-0.5,0.7-0.7
		c0.2-0.3,0.3-0.5,0.4-0.8c0.1-0.4,0.1-0.7,0.1-1c-0.1-0.2-0.3-0.4-0.5-0.5c-0.2,0-0.3,0-0.4,0.1c-0.1,0.1-0.2,0.2-0.3,0.4
		c-0.1,0.2-0.2,0.4-0.3,0.7c0,0,0,0,0,0.1c0,0,0,0,0,0.1c0,0,0,0,0,0c0,0,0,0,0,0c-0.2,0.4-0.3,0.7-0.5,1s-0.4,0.5-0.7,0.6
		c-0.3,0.1-0.7,0.1-1.2,0c-0.4-0.1-0.8-0.3-1-0.6s-0.4-0.6-0.4-1c0-0.4,0-0.9,0.2-1.5C244.7,197.8,244.8,197.6,244.8,197.6z"/>
	<path id="XMLID_149_" class="st10" d="M243.6,202.5c0.3-0.1,0.8-0.1,1.3,0.1l6.1,2.3l-0.4,1.1l-6.1-2.3c-0.1-0.1-0.3-0.1-0.4,0
		c-0.1,0-0.2,0.1-0.2,0.2l-0.2,0.6l-1.1-0.4l0.2-0.7C243,203,243.3,202.7,243.6,202.5z M249.5,203.7l-1,2.6l-1-0.4l1-2.6
		L249.5,203.7z"/>
	<path id="XMLID_152_" class="st10" d="M247.8,208l-0.5,1.1l-5.8-2.4l0.5-1.1L247.8,208z M250.1,209l-0.5,1.1l-1.1-0.5l0.5-1.1
		L250.1,209z"/>
	<path id="XMLID_155_" class="st10" d="M242.6,213.3c0.4,0.2,0.8,0.2,1.1,0.1c0.3-0.1,0.6-0.3,0.8-0.7c0.2-0.4,0.2-0.7,0.1-1
		c-0.1-0.3-0.3-0.5-0.7-0.7l1.1,0.4c0.3,0.3,0.4,0.7,0.5,1.1c0,0.4,0,0.7-0.2,1.1c-0.3,0.6-0.7,1-1.3,1.1c-0.6,0.1-1.2,0-1.9-0.3
		l-3.4-1.7l0.5-1.1L242.6,213.3z M246.5,211l-0.5,1.1l-5.6-2.8l0.5-1.1L246.5,211z"/>
	<path id="XMLID_158_" class="st10" d="M235,214.1c0,0,0.2-0.1,0.5-0.3c0.3-0.2,0.7-0.3,1.1-0.4l0.2,1.1c-0.3,0-0.5,0.1-0.7,0.2
		c-0.2,0.1-0.4,0.3-0.5,0.5c-0.2,0.4-0.3,0.8-0.2,1.1c0.1,0.4,0.3,0.7,0.8,0.9l5.4,3.2l-0.6,1.1l-5.2-3.1c-0.5-0.3-0.9-0.6-1.1-1
		c-0.2-0.4-0.4-0.8-0.3-1.3s0.2-0.9,0.5-1.4C234.8,214.3,235,214.1,235,214.1z M237.6,215c0.3-0.2,0.7-0.2,1.1-0.2
		c0.4,0.1,0.9,0.2,1.3,0.5l1.2,0.7c0.5,0.3,0.8,0.6,1.1,0.9c0.2,0.3,0.4,0.7,0.4,1.1c0,0.4-0.1,0.7-0.3,1.1
		c-0.2,0.3-0.4,0.6-0.8,0.7c-0.3,0.2-0.7,0.2-1.1,0.2l-1-0.8c0.2,0.1,0.4,0.2,0.7,0.2c0.2,0,0.4,0,0.6-0.1c0.2-0.1,0.3-0.3,0.5-0.5
		c0.2-0.3,0.3-0.7,0.2-1s-0.4-0.6-0.7-0.8l-1.2-0.7c-0.4-0.2-0.8-0.3-1.1-0.3c-0.3,0.1-0.6,0.3-0.8,0.6c-0.1,0.2-0.2,0.4-0.2,0.6
		c0,0.2,0,0.4,0.2,0.6c0.1,0.2,0.3,0.3,0.5,0.5l-1.2-0.6c-0.2-0.3-0.3-0.6-0.4-0.9c0-0.4,0.1-0.7,0.3-1.1
		C237,215.5,237.3,215.2,237.6,215z"/>
	<path id="XMLID_161_" class="st10" d="M233.7,227.5c0.3,0.2,0.6,0.4,1,0.3c0.3,0,0.6-0.2,0.8-0.5c0.2-0.2,0.3-0.4,0.3-0.7
		c0.1-0.2,0.1-0.5,0.1-0.7l1-0.3c0.1,0.4,0.1,0.7,0,1.1s-0.3,0.8-0.6,1.2c-0.3,0.4-0.7,0.7-1,0.9c-0.4,0.2-0.8,0.2-1.1,0.2
		c-0.4-0.1-0.8-0.2-1.2-0.5l-3.2-2.4l0.7-0.9L233.7,227.5z M232.8,222.8c0.5-0.1,1,0,1.5,0.4c0.5,0.4,0.8,0.8,0.8,1.3
		c0,0.5-0.2,1-0.6,1.5l-1.1,1.4l-0.8-0.5l1.1-1.5c0.2-0.3,0.3-0.5,0.3-0.7c0-0.2-0.1-0.4-0.4-0.6c-0.3-0.2-0.5-0.3-0.8-0.2
		c-0.3,0.1-0.5,0.3-0.8,0.6c-0.3,0.4-0.5,0.7-0.5,0.9c-0.1,0.2,0,0.4,0.2,0.6l-0.8-0.4c-0.1-0.2-0.1-0.4-0.1-0.6
		c0-0.2,0.1-0.4,0.1-0.6c0.1-0.2,0.2-0.4,0.4-0.6C231.8,223.2,232.3,222.9,232.8,222.8z"/>
	<path id="XMLID_164_" class="st10" d="M229,232.7c0.3,0.3,0.7,0.4,1,0.4c0.3,0,0.6-0.2,0.9-0.5c0.3-0.3,0.4-0.6,0.4-0.9
		c0-0.3-0.2-0.6-0.5-0.8l1,0.7c0.2,0.4,0.2,0.8,0.1,1.1c-0.1,0.4-0.2,0.7-0.5,1c-0.5,0.5-1,0.7-1.5,0.7c-0.6,0-1.2-0.3-1.8-0.9
		l-2.8-2.6l0.8-0.9L229,232.7z M233.4,231.5l-0.8,0.9l-4.7-4.2l0.8-0.9L233.4,231.5z"/>
	<path id="XMLID_167_" class="st10" d="M227.7,241l-0.9,0.8l-6.1-6.4l0.9-0.8L227.7,241z M223.8,232.9c0.4-0.1,0.7,0,1.1,0.1
		c0.4,0.2,0.8,0.4,1.1,0.8l1,1c0.4,0.4,0.6,0.8,0.8,1.2c0.1,0.4,0.2,0.8,0.1,1.1c-0.1,0.4-0.3,0.7-0.6,1c-0.3,0.3-0.6,0.4-0.9,0.5
		c-0.4,0.1-0.7,0-1.1-0.1l-0.8-1c0.2,0.2,0.4,0.3,0.6,0.4c0.2,0.1,0.4,0.1,0.6,0c0.2-0.1,0.4-0.2,0.6-0.3c0.3-0.3,0.4-0.6,0.4-0.9
		c0-0.3-0.2-0.7-0.5-1l-0.9-1c-0.3-0.3-0.6-0.5-1-0.5c-0.3,0-0.6,0.1-0.9,0.4c-0.2,0.2-0.3,0.4-0.4,0.6c-0.1,0.2-0.1,0.4,0,0.6
		s0.2,0.4,0.4,0.6l-1-0.9c-0.1-0.3-0.2-0.6-0.1-1c0.1-0.3,0.2-0.7,0.5-0.9C223.1,233.2,223.4,233,223.8,232.9z"/>
	<path id="XMLID_170_" class="st10" d="M212.8,241.7c0,0,0.3,0,0.8,0c0.5,0,1,0.1,1.5,0.4c0.5,0.3,0.9,0.7,1.3,1.2l1.4,2
		c0.4,0.5,0.6,1.1,0.7,1.6c0.1,0.6,0,1.1-0.2,1.6c-0.2,0.5-0.6,0.9-1.1,1.2c-0.4,0.3-0.9,0.5-1.3,0.5s-0.9,0-1.4-0.2
		c-0.5-0.2-0.9-0.4-1.2-0.8l1-0.7c0.2,0.2,0.5,0.3,0.7,0.4c0.3,0.1,0.5,0.1,0.8,0.1c0.3,0,0.5-0.1,0.7-0.3c0.3-0.2,0.5-0.4,0.6-0.7
		c0.1-0.3,0.2-0.6,0.1-1c-0.1-0.3-0.2-0.7-0.4-1l-1.4-2c-0.2-0.3-0.5-0.6-0.8-0.8c-0.3-0.2-0.6-0.3-0.9-0.3c-0.3,0-0.6,0.1-0.9,0.3
		c-0.2,0.1-0.4,0.3-0.5,0.6c-0.1,0.2-0.2,0.5-0.2,0.8c0,0.3,0,0.6,0.1,0.8l-1,0.7c-0.2-0.5-0.3-1-0.3-1.5c0-0.5,0.1-0.9,0.4-1.4
		c0.2-0.4,0.5-0.8,1-1C212.5,241.8,212.8,241.7,212.8,241.7z"/>
	<path id="XMLID_172_" class="st10" d="M207.2,249.8c0.2,0.4,0.5,0.6,0.8,0.7c0.3,0.1,0.6,0,1-0.2c0.2-0.1,0.4-0.3,0.6-0.5
		c0.2-0.2,0.3-0.4,0.4-0.6l1.1,0.1c-0.1,0.4-0.2,0.7-0.5,1c-0.3,0.3-0.6,0.6-1,0.8c-0.5,0.3-0.9,0.4-1.3,0.4c-0.4,0-0.8-0.1-1.1-0.3
		c-0.3-0.2-0.6-0.5-0.9-1l-2-3.5l1-0.6L207.2,249.8z M208.3,245.1c0.5,0.1,0.9,0.4,1.2,1c0.3,0.5,0.4,1,0.2,1.5
		c-0.2,0.4-0.5,0.8-1.1,1.2l-1.5,0.9l-0.6-0.8l1.6-0.9c0.3-0.2,0.5-0.3,0.5-0.5s0-0.4-0.1-0.7c-0.2-0.3-0.4-0.4-0.6-0.5
		c-0.3,0-0.6,0.1-0.9,0.3c-0.4,0.2-0.7,0.4-0.8,0.6c-0.2,0.2-0.2,0.4-0.1,0.6l-0.5-0.7c0-0.2,0.1-0.4,0.1-0.6
		c0.1-0.2,0.2-0.3,0.4-0.5c0.2-0.2,0.3-0.3,0.6-0.4C207.2,245.2,207.8,245,208.3,245.1z"/>
	<path id="XMLID_175_" class="st10" d="M202.3,249.7c-0.1-0.1-0.1-0.2-0.2-0.3c-0.1,0-0.2,0-0.3,0l-0.5,0.3l-0.5-1.1l0.6-0.3
		c0.4-0.2,0.8-0.2,1.2-0.1c0.4,0.2,0.6,0.5,0.9,0.9l3.1,6.4l-1.1,0.5L202.3,249.7z"/>
	<path id="XMLID_177_" class="st10" d="M202.1,254.9l-1.1,0.5l-2.5-5.8l1.1-0.5L202.1,254.9z M203.1,257.2l-1.1,0.5l-0.5-1.1
		l1.1-0.5L203.1,257.2z"/>
	<path id="XMLID_180_" class="st10" d="M195.3,251.1c0.3,0.1,0.6,0.3,0.9,0.5l0.4,1.3c-0.1-0.3-0.2-0.5-0.4-0.6
		c-0.2-0.1-0.3-0.2-0.5-0.3s-0.4,0-0.7,0.1c-0.4,0.1-0.6,0.4-0.8,0.7c-0.1,0.3-0.1,0.7,0.1,1.1l0.5,1.3c0.2,0.4,0.4,0.7,0.7,0.9
		c0.3,0.2,0.6,0.2,1,0c0.2-0.1,0.4-0.2,0.6-0.4c0.1-0.2,0.2-0.3,0.2-0.5c0-0.2,0-0.4-0.1-0.7l0.5,1.1c0,0.4-0.2,0.8-0.4,1.1
		c-0.2,0.3-0.5,0.5-0.8,0.6c-0.4,0.2-0.8,0.2-1.2,0.1c-0.4-0.1-0.7-0.3-1-0.6c-0.3-0.3-0.5-0.7-0.7-1.2l-0.5-1.3
		c-0.2-0.5-0.3-1-0.2-1.4c0-0.4,0.2-0.8,0.4-1.1c0.2-0.3,0.6-0.5,1-0.7C194.6,251.1,195,251.1,195.3,251.1z M200,258.6l-1.1,0.4
		l-3.1-8.3l1.1-0.4L200,258.6z"/>
	<path id="XMLID_183_" class="st10" d="M189.3,258.3c0.2,0,0.4,0,0.6-0.1c0.4-0.1,0.6-0.3,0.8-0.6c0.1-0.3,0.2-0.6,0.1-1l0.5,1.1
		c-0.1,0.4-0.2,0.8-0.5,1c-0.2,0.3-0.5,0.5-0.9,0.6c-0.3,0.1-0.5,0.1-0.8,0.1c-0.2,0-0.5-0.1-0.7-0.2l0.5-1.3
		C189,258.2,189.1,258.3,189.3,258.3z M192.5,258.6l-1.2,0.3l-1.8-6l1.2-0.3L192.5,258.6z"/>
	<path id="XMLID_186_" class="st10" d="M183.3,258.6c0.1,0.4,0.3,0.7,0.5,0.9c0.3,0.2,0.6,0.2,1,0.1c0.2-0.1,0.5-0.1,0.7-0.3
		c0.2-0.1,0.4-0.3,0.5-0.4l1,0.4c-0.2,0.3-0.4,0.6-0.8,0.9c-0.3,0.2-0.7,0.4-1.2,0.5c-0.5,0.1-1,0.1-1.4,0c-0.4-0.1-0.7-0.3-1-0.6
		c-0.3-0.3-0.4-0.7-0.6-1.2l-0.9-3.9l1.1-0.3L183.3,258.6z M185.7,254.4c0.4,0.2,0.7,0.7,0.9,1.3c0.1,0.6,0.1,1.1-0.2,1.5
		c-0.3,0.4-0.8,0.6-1.4,0.8l-1.7,0.4l-0.3-1l1.8-0.4c0.3-0.1,0.5-0.2,0.7-0.4c0.1-0.2,0.2-0.4,0.1-0.7c-0.1-0.3-0.2-0.5-0.5-0.6
		s-0.6-0.1-1,0c-0.5,0.1-0.8,0.2-1,0.4c-0.2,0.1-0.3,0.3-0.2,0.5l-0.3-0.8c0.1-0.2,0.2-0.4,0.3-0.5c0.1-0.1,0.3-0.3,0.5-0.4
		c0.2-0.1,0.4-0.2,0.7-0.2C184.7,254.1,185.3,254.1,185.7,254.4z"/>
	<path id="XMLID_189_" class="st10" d="M179.2,255.7c0.3,0.2,0.5,0.6,0.5,1.2l1,6.4l-1.2,0.2l-1-6.4c0-0.2-0.1-0.3-0.1-0.3
		c-0.1-0.1-0.2-0.1-0.3-0.1l-0.6,0.1l-0.2-1.2l0.7-0.1C178.5,255.4,178.9,255.4,179.2,255.7z M181.1,261.3l-2.8,0.4l-0.2-1.1
		l2.8-0.4L181.1,261.3z"/>
	<path id="XMLID_192_" class="st10" d="M176.5,262l-1.2,0.1l-0.7-6.2l1.2-0.1L176.5,262z M176.8,264.5l-1.2,0.1l-0.1-1.2l1.2-0.1
		L176.8,264.5z"/>
	<path id="XMLID_195_" class="st10" d="M171.9,256.4c0.4,0.2,0.7,0.5,0.9,0.9c0.2,0.4,0.4,0.9,0.4,1.5l0.1,1c0,0.6,0,1.1-0.2,1.5
		c-0.2,0.4-0.5,0.7-0.8,1c-0.4,0.2-0.8,0.4-1.4,0.4c-0.5,0-1,0-1.4-0.2c-0.4-0.2-0.7-0.5-0.9-0.9c-0.2-0.4-0.4-0.9-0.4-1.4l-0.1-1
		c0-0.6,0-1.1,0.2-1.5c0.2-0.4,0.5-0.7,0.8-1c0.4-0.2,0.8-0.4,1.4-0.4C171,256.1,171.5,256.2,171.9,256.4z M169.6,257.8
		c-0.2,0.3-0.3,0.7-0.3,1.2l0.1,1c0,0.5,0.2,0.9,0.4,1.1c0.2,0.3,0.6,0.4,1,0.3c0.4,0,0.8-0.2,1-0.5c0.2-0.3,0.3-0.7,0.3-1.2l-0.1-1
		c0-0.5-0.2-0.9-0.4-1.1c-0.3-0.3-0.6-0.4-1-0.3C170.1,257.3,169.8,257.5,169.6,257.8z"/>
	<path id="XMLID_198_" class="st10" d="M162.5,260.1c0,0.4,0.1,0.8,0.3,1s0.5,0.4,1,0.4c0.4,0,0.7-0.1,0.9-0.3
		c0.2-0.2,0.3-0.5,0.3-0.9l0.1,1.2c-0.2,0.4-0.5,0.7-0.8,0.9c-0.3,0.2-0.7,0.3-1,0.3c-0.7,0-1.2-0.2-1.6-0.7
		c-0.4-0.5-0.5-1.1-0.5-1.9l0.1-3.8l1.2,0L162.5,260.1z M166.2,262.7l-1.2,0l0.1-6.3l1.2,0L166.2,262.7z"/>
	<path id="XMLID_201_" class="st10" d="M155.6,257l-4.9-0.7l0.2-1.2l4.9,0.7L155.6,257z M155.2,264.6l-1.2-0.2l1.2-8.7l1.2,0.2
		L155.2,264.6z"/>
	<path id="XMLID_204_" class="st10" d="M145.5,258c-0.1,0.4-0.1,0.7,0.1,1c0.2,0.3,0.4,0.4,0.8,0.5c0.2,0.1,0.5,0.1,0.7,0
		c0.2,0,0.5-0.1,0.7-0.2l0.7,0.8c-0.3,0.2-0.6,0.4-1.1,0.5c-0.4,0.1-0.8,0.1-1.3,0c-0.5-0.1-0.9-0.3-1.2-0.6c-0.3-0.3-0.5-0.6-0.6-1
		c-0.1-0.4-0.1-0.8,0-1.3l0.9-3.9l1.1,0.3L145.5,258z M149.4,255.2c0.3,0.4,0.4,0.9,0.2,1.5c-0.1,0.6-0.4,1-0.8,1.3
		c-0.4,0.2-1,0.3-1.6,0.1l-1.7-0.4l0.1-1l1.8,0.4c0.3,0.1,0.6,0.1,0.7-0.1c0.2-0.1,0.3-0.3,0.4-0.6c0.1-0.3,0-0.6-0.2-0.8
		c-0.2-0.2-0.5-0.3-0.9-0.4c-0.5-0.1-0.8-0.1-1.1-0.1c-0.2,0-0.4,0.2-0.4,0.4l0.1-0.9c0.1-0.1,0.3-0.2,0.5-0.3
		c0.2-0.1,0.4-0.1,0.6-0.1s0.4,0,0.7,0.1C148.6,254.5,149.1,254.8,149.4,255.2z"/>
	<path id="XMLID_207_" class="st10" d="M141.8,253.1c0.2,0.3,0.3,0.6,0.4,0.9l-0.5,1.2c0.1-0.3,0.1-0.5,0.1-0.7
		c0-0.2-0.1-0.4-0.3-0.5c-0.1-0.1-0.3-0.3-0.6-0.3c-0.4-0.1-0.7-0.1-1,0.1c-0.3,0.2-0.5,0.5-0.6,0.9l-0.4,1.3
		c-0.1,0.4-0.1,0.8,0,1.1c0.1,0.3,0.4,0.5,0.8,0.6c0.2,0.1,0.5,0.1,0.7,0.1c0.2,0,0.4-0.1,0.5-0.3c0.1-0.2,0.3-0.4,0.3-0.6l-0.2,1.2
		c-0.3,0.3-0.6,0.5-1,0.6c-0.4,0.1-0.7,0.1-1.1,0c-0.4-0.1-0.8-0.3-1-0.6c-0.2-0.3-0.4-0.6-0.4-1c0-0.4,0-0.9,0.2-1.4l0.4-1.3
		c0.2-0.5,0.4-0.9,0.6-1.2c0.3-0.3,0.6-0.5,1-0.6c0.4-0.1,0.8-0.1,1.2,0.1C141.3,252.6,141.6,252.8,141.8,253.1z M141,261.9
		l-1.2-0.4l2.6-8.4l1.2,0.4L141,261.9z"/>
	<path id="XMLID_210_" class="st10" d="M136.4,251.3c0.3,0.3,0.4,0.7,0.5,1.2c0,0.5,0,1-0.3,1.5l-0.4,1c-0.2,0.5-0.5,0.9-0.8,1.3
		c-0.3,0.3-0.7,0.5-1.2,0.5c-0.4,0.1-0.9,0-1.4-0.2c-0.5-0.2-0.9-0.5-1.2-0.8c-0.3-0.3-0.4-0.7-0.5-1.2c0-0.5,0-0.9,0.3-1.5l0.4-1
		c0.2-0.5,0.5-1,0.8-1.3s0.7-0.5,1.2-0.5c0.4-0.1,0.9,0,1.4,0.2C135.7,250.7,136.1,251,136.4,251.3z M133.7,251.6
		c-0.3,0.2-0.6,0.5-0.7,0.9l-0.4,1c-0.2,0.5-0.2,0.8-0.1,1.2c0.1,0.3,0.4,0.6,0.8,0.7c0.4,0.2,0.8,0.2,1.1,0
		c0.3-0.2,0.6-0.5,0.7-0.9l0.4-1c0.2-0.5,0.2-0.9,0.1-1.2c-0.1-0.3-0.4-0.6-0.8-0.7C134.4,251.5,134,251.5,133.7,251.6z"/>
	<path id="XMLID_213_" class="st10" d="M126.4,252.3c0.1,0.1,0.3,0.2,0.5,0.3c0.4,0.2,0.7,0.2,1,0.1c0.3-0.1,0.5-0.3,0.7-0.7
		l-0.4,1.1c-0.3,0.3-0.7,0.4-1,0.5c-0.4,0.1-0.7,0-1-0.2c-0.3-0.1-0.5-0.3-0.6-0.4c-0.2-0.2-0.3-0.4-0.4-0.6l1.2-0.6
		C126.2,252,126.3,252.2,126.4,252.3z M128.6,254.7l-1.1-0.5l2.7-5.7l1.1,0.5L128.6,254.7z"/>
	<path id="XMLID_216_" class="st10" d="M121.8,248.5c-0.2,0.4-0.3,0.7-0.2,1s0.3,0.6,0.6,0.8c0.2,0.1,0.4,0.2,0.7,0.3
		c0.2,0,0.5,0.1,0.7,0l0.5,1c-0.3,0.1-0.7,0.2-1.1,0.1c-0.4-0.1-0.8-0.2-1.2-0.4c-0.5-0.3-0.8-0.6-1-0.9c-0.2-0.3-0.3-0.7-0.3-1.1
		c0-0.4,0.1-0.8,0.4-1.2l2-3.5l1,0.6L121.8,248.5z M126.3,247c0.2,0.5,0.1,1-0.2,1.6c-0.3,0.5-0.7,0.9-1.1,1c-0.5,0.1-1,0-1.6-0.4
		l-1.5-0.9l0.4-0.9l1.6,0.9c0.3,0.2,0.5,0.2,0.7,0.2c0.2,0,0.4-0.2,0.5-0.5c0.2-0.3,0.2-0.5,0.1-0.8c-0.1-0.2-0.3-0.5-0.7-0.7
		c-0.4-0.2-0.7-0.4-1-0.4c-0.2,0-0.4,0.1-0.5,0.2l0.3-0.8c0.2-0.1,0.4-0.2,0.6-0.2c0.2,0,0.4,0,0.6,0.1c0.2,0.1,0.4,0.1,0.7,0.3
		C125.7,246.1,126.2,246.5,126.3,247z"/>
	<path id="XMLID_219_" class="st10" d="M120.6,243.6c0,0.4-0.1,0.8-0.4,1.2l-3.5,5.4l-1-0.7l3.5-5.5c0.1-0.1,0.1-0.2,0.1-0.3
		c0-0.1-0.1-0.2-0.2-0.2l-0.5-0.3l0.6-1l0.6,0.4C120.3,243,120.6,243.3,120.6,243.6z M118.2,249.1l-2.4-1.5l0.6-0.9l2.4,1.5
		L118.2,249.1z"/>
	<path id="XMLID_222_" class="st10" d="M117.1,241.1c0.2,0.4,0.2,0.8,0.2,1.3c-0.1,0.4-0.3,0.9-0.6,1.4l-0.6,0.8
		c-0.3,0.5-0.7,0.8-1.1,1c-0.4,0.2-0.8,0.3-1.3,0.2c-0.4-0.1-0.9-0.2-1.3-0.6c-0.4-0.3-0.7-0.7-0.9-1.1c-0.2-0.4-0.2-0.8-0.2-1.3
		c0.1-0.4,0.3-0.9,0.6-1.4l0.6-0.8c0.3-0.5,0.7-0.8,1.1-1c0.4-0.2,0.8-0.3,1.3-0.2c0.4,0.1,0.9,0.2,1.3,0.6
		C116.6,240.3,116.9,240.7,117.1,241.1z M114.4,240.7c-0.3,0.1-0.7,0.3-1,0.7l-0.6,0.8c-0.3,0.4-0.4,0.8-0.4,1.1
		c0,0.4,0.2,0.7,0.6,0.9c0.3,0.3,0.7,0.3,1,0.3c0.3-0.1,0.7-0.3,1-0.7l0.6-0.8c0.3-0.4,0.4-0.8,0.4-1.1c0-0.4-0.2-0.7-0.6-0.9
		C115.1,240.7,114.8,240.6,114.4,240.7z"/>
	<path id="XMLID_225_" class="st10" d="M107.2,239.5c0.1,0.2,0.2,0.3,0.4,0.4c0.3,0.3,0.6,0.4,0.9,0.3c0.3,0,0.6-0.2,0.8-0.5l-0.7,1
		c-0.4,0.2-0.8,0.2-1.1,0.2c-0.4,0-0.7-0.2-1-0.4c-0.2-0.2-0.4-0.4-0.5-0.6c-0.1-0.2-0.2-0.4-0.2-0.7l1.3-0.3
		C107.1,239.2,107.1,239.3,107.2,239.5z M108.7,242.3l-0.9-0.8l4.1-4.8l0.9,0.8L108.7,242.3z"/>
	<path id="XMLID_228_" class="st10" d="M102.9,240.6l-0.9-0.8l0.8-0.9l0.9,0.8L102.9,240.6z M104.7,238.8l-0.9-0.8l4.3-4.6l0.9,0.8
		L104.7,238.8z"/>
	<path id="XMLID_231_" class="st10" d="M105.7,230.9c0,0,0.1,0.2,0.2,0.7c0.1,0.4,0.1,0.9,0,1.3c-0.2,0.4-0.4,0.9-0.9,1.3l-0.5,0.5
		c-0.4,0.4-0.9,0.7-1.4,0.9c-0.5,0.2-0.9,0.2-1.3,0s-0.8-0.4-1.2-0.8c-0.4-0.4-0.6-0.8-0.6-1.2c-0.1-0.4,0-0.9,0.2-1.4
		s0.6-1,1.1-1.4l0.3-0.3l2.9,3l-0.7,0.7l-2.1-2.2c-0.3,0.4-0.5,0.8-0.6,1.1c0,0.4,0.1,0.7,0.3,1c0.3,0.3,0.7,0.5,1.1,0.5
		c0.4,0,0.8-0.2,1.2-0.6l0.6-0.6c0.4-0.4,0.6-0.7,0.6-1.1c0-0.4-0.2-0.8-0.5-1.1c-0.2-0.2-0.4-0.3-0.6-0.4c-0.2-0.1-0.5-0.2-0.8-0.2
		l0-1.1c0.4,0,0.8,0.1,1.2,0.3s0.7,0.4,1,0.7C105.5,230.7,105.7,230.9,105.7,230.9z"/>
	<path id="XMLID_233_" class="st10" d="M101.4,226.2c0,0,0.1,0.1,0.2,0.4s0.3,0.6,0.3,0.9c0.1,0.3,0.1,0.6,0.1,0.9l-1.2,0
		c0-0.4-0.1-0.8-0.2-1.1c-0.1-0.3-0.3-0.6-0.5-0.9c-0.3-0.4-0.6-0.6-0.9-0.7c-0.3-0.1-0.5,0-0.8,0.2c-0.2,0.1-0.2,0.3-0.2,0.4
		c0,0.2,0.1,0.3,0.2,0.5c0.1,0.2,0.3,0.4,0.5,0.7c0,0,0,0.1,0.1,0.1c0,0,0,0.1,0.1,0.1c0,0,0,0,0,0s0,0,0,0c0.2,0.3,0.4,0.6,0.5,0.9
		c0.1,0.3,0.1,0.6,0.1,0.8c-0.1,0.3-0.3,0.6-0.6,0.9c-0.3,0.3-0.7,0.4-1,0.5c-0.3,0-0.7,0-1-0.2c-0.3-0.2-0.7-0.5-1-0.9
		c-0.2-0.2-0.4-0.5-0.5-0.8c-0.1-0.3-0.3-0.5-0.3-0.8c-0.1-0.3-0.1-0.6-0.1-0.9l1.2,0c0,0.4,0.1,0.7,0.2,1s0.3,0.6,0.4,0.8
		c0.3,0.3,0.5,0.5,0.8,0.6c0.2,0.1,0.5,0,0.7-0.2c0.1-0.1,0.2-0.2,0.2-0.4c0-0.1-0.1-0.3-0.2-0.5c-0.1-0.2-0.2-0.4-0.4-0.6
		c0,0,0,0,0-0.1c0,0,0,0,0-0.1c0,0,0,0,0,0c0,0,0,0,0,0c-0.3-0.4-0.4-0.7-0.6-1c-0.1-0.3-0.2-0.6-0.1-0.9c0.1-0.3,0.3-0.6,0.7-1
		c0.3-0.3,0.7-0.5,1-0.5c0.4,0,0.7,0,1.1,0.2c0.4,0.2,0.7,0.5,1.1,1C101.3,226,101.4,226.2,101.4,226.2z"/>
</g>
<g id="XMLID_3_">
	<g id="XMLID_855_">
		<path id="XMLID_936_" class="st10" d="M81,145.9l0.4-1.1l7.8-1.8l0.1,0.2l-6.6-2.3l0.4-1.1l8.3,2.9l-0.4,1.1l-7.7,1.8l-0.1-0.2
			l6.5,2.2l-0.4,1.1L81,145.9z"/>
		<path id="XMLID_933_" class="st10" d="M90,136.1c-0.4-0.2-0.7-0.2-1-0.1c-0.3,0.1-0.5,0.3-0.7,0.7c-0.1,0.2-0.2,0.5-0.2,0.7
			c0,0.2,0,0.5,0,0.7l-0.9,0.6c-0.2-0.3-0.2-0.7-0.2-1.1c0-0.4,0.1-0.8,0.3-1.3c0.2-0.5,0.5-0.8,0.8-1.1c0.3-0.3,0.7-0.4,1.1-0.4
			c0.4,0,0.8,0.1,1.3,0.3l3.7,1.7l-0.5,1.1L90,136.1z M91.9,140.6c-0.4,0.2-1,0.2-1.6-0.1c-0.6-0.3-0.9-0.6-1.1-1.1
			c-0.1-0.4-0.1-1,0.2-1.6l0.7-1.6l0.9,0.3l-0.8,1.7c-0.1,0.3-0.2,0.5-0.1,0.7c0.1,0.2,0.2,0.4,0.5,0.5c0.3,0.1,0.5,0.1,0.8,0
			c0.2-0.1,0.4-0.4,0.6-0.8c0.2-0.4,0.3-0.8,0.3-1c0-0.3-0.1-0.4-0.3-0.5l0.9,0.2c0.1,0.2,0.2,0.3,0.2,0.5c0,0.2,0,0.4,0,0.6
			c0,0.2-0.1,0.4-0.2,0.7C92.7,139.9,92.3,140.4,91.9,140.6z"/>
		<path id="XMLID_930_" class="st10" d="M94.7,134.5c-0.4,0.1-0.8,0-1.3-0.3l-5.7-3l0.6-1.1l5.7,3c0.1,0.1,0.3,0.1,0.4,0.1
			c0.1,0,0.2-0.1,0.2-0.2l0.3-0.5l1,0.5l-0.3,0.6C95.4,134.2,95.1,134.5,94.7,134.5z M89.1,132.7l1.3-2.5l1,0.5l-1.3,2.5L89.1,132.7
			z"/>
		<path id="XMLID_927_" class="st10" d="M89.1,127.3l0.6-1.1l1.1,0.6l-0.6,1.1L89.1,127.3z M91.3,128.6l0.6-1.1l5.4,3.2l-0.6,1.1
			L91.3,128.6z"/>
		<path id="XMLID_924_" class="st10" d="M98.6,128.2c-0.4,0.2-0.8,0.3-1.3,0.2c-0.5-0.1-0.9-0.2-1.4-0.6l-0.9-0.6
			c-0.5-0.3-0.8-0.7-1.1-1.1c-0.2-0.4-0.3-0.8-0.3-1.2c0-0.4,0.2-0.9,0.5-1.3c0.3-0.5,0.6-0.8,1-1c0.4-0.2,0.8-0.3,1.3-0.2
			c0.4,0.1,0.9,0.2,1.4,0.5l0.9,0.6c0.5,0.3,0.8,0.7,1.1,1.1c0.2,0.4,0.3,0.8,0.3,1.2c0,0.4-0.2,0.9-0.5,1.3
			C99.3,127.7,99,128,98.6,128.2z M98.8,125.5c-0.1-0.3-0.3-0.6-0.8-0.9l-0.9-0.6c-0.4-0.3-0.8-0.4-1.1-0.3c-0.4,0-0.6,0.3-0.9,0.6
			s-0.3,0.7-0.2,1c0.1,0.3,0.3,0.6,0.8,0.9l0.9,0.6c0.4,0.3,0.8,0.4,1.1,0.3c0.4,0,0.6-0.2,0.9-0.6
			C98.9,126.2,98.9,125.9,98.8,125.5z"/>
		<path id="XMLID_921_" class="st10" d="M96.9,119.9l0.8-1l5,3.9l-0.8,1L96.9,119.9z M101.2,118.4c-0.4-0.3-0.7-0.4-1-0.4
			c-0.3,0-0.6,0.2-0.9,0.5c-0.2,0.3-0.4,0.6-0.3,0.9s0.2,0.6,0.5,0.8l-1-0.6c-0.2-0.4-0.3-0.8-0.2-1.1c0-0.4,0.2-0.7,0.4-1
			c0.4-0.5,0.9-0.8,1.5-0.8c0.6,0,1.2,0.2,1.8,0.7l3,2.3l-0.8,1L101.2,118.4z"/>
		<path id="XMLID_918_" class="st10" d="M105.5,113.2c-0.3-0.3-0.6-0.4-0.9-0.4c-0.3,0-0.6,0.2-0.9,0.5c-0.2,0.2-0.3,0.4-0.4,0.6
			c-0.1,0.2-0.2,0.5-0.2,0.7l-1.1,0.2c-0.1-0.4,0-0.7,0.1-1.1c0.1-0.4,0.4-0.8,0.7-1.1c0.3-0.4,0.7-0.6,1.1-0.8
			c0.4-0.1,0.8-0.2,1.2-0.1c0.4,0.1,0.8,0.3,1.1,0.6l3,2.7l-0.8,0.9L105.5,113.2z M105.9,118c-0.5,0.1-1-0.1-1.5-0.6
			c-0.5-0.4-0.7-0.9-0.7-1.3c0-0.5,0.2-1,0.7-1.5l1.2-1.3l0.8,0.6l-1.2,1.4c-0.2,0.2-0.3,0.5-0.3,0.7c0,0.2,0.1,0.4,0.3,0.6
			c0.2,0.2,0.5,0.3,0.7,0.2c0.3-0.1,0.5-0.2,0.8-0.6c0.3-0.3,0.5-0.6,0.6-0.9c0.1-0.2,0-0.4-0.1-0.6l0.7,0.5c0.1,0.2,0.1,0.4,0,0.6
			c0,0.2-0.1,0.4-0.2,0.6c-0.1,0.2-0.2,0.4-0.4,0.6C106.9,117.7,106.4,118,105.9,118z"/>
		<path id="XMLID_916_" class="st10" d="M110.2,111.8c0.1,0.1,0.2,0.2,0.3,0.2c0.1,0,0.2,0,0.3-0.1l0.4-0.4l0.8,0.8l-0.5,0.5
			c-0.3,0.3-0.7,0.5-1.1,0.4c-0.4,0-0.8-0.2-1.1-0.6l-5-5.1l0.9-0.9L110.2,111.8z"/>
		<path id="XMLID_913_" class="st10" d="M114.7,98.7l0.8-0.6l7.8,5.2l-1.1,0.8l-6.1-4.3l2.2,7.2l-1.1,0.8L114.7,98.7z M116.6,104.3
			l3.7-2.7l0.7,1l-3.7,2.7L116.6,104.3z"/>
		<path id="XMLID_911_" class="st10" d="M125.6,102c0,0-0.2,0-0.7,0c-0.5,0-0.9-0.1-1.3-0.3c-0.4-0.2-0.7-0.6-1-1.1l-0.5-0.9
			c-0.3-0.5-0.5-1-0.5-1.4c0-0.5,0.1-0.9,0.3-1.3c0.2-0.4,0.6-0.7,1.1-1c0.3-0.2,0.6-0.3,0.8-0.4c0.3-0.1,0.6-0.1,0.8-0.1
			c0.3,0,0.5,0.1,0.8,0.2l-0.3,1.1c-0.3-0.1-0.5-0.1-0.8-0.1c-0.3,0-0.5,0.1-0.7,0.2c-0.4,0.2-0.6,0.5-0.7,0.9
			c-0.1,0.4,0,0.8,0.2,1.2l0.5,0.9c0.3,0.4,0.6,0.7,0.9,0.8c0.4,0.1,0.7,0,1.2-0.2c0.2-0.1,0.4-0.3,0.5-0.5c0.1-0.2,0.2-0.5,0.3-0.7
			l1.2,0.3c0,0.3-0.1,0.5-0.2,0.8c-0.1,0.2-0.3,0.5-0.5,0.7c-0.2,0.2-0.4,0.4-0.7,0.6C125.9,101.9,125.6,102,125.6,102z"/>
		<path id="XMLID_909_" class="st10" d="M130.8,99.1c0,0-0.2,0-0.7,0c-0.5,0-0.9-0.1-1.2-0.4c-0.4-0.3-0.7-0.7-1-1.2l-0.5-0.9
			c-0.3-0.5-0.4-1-0.4-1.4c0-0.5,0.1-0.9,0.4-1.2c0.3-0.4,0.6-0.7,1.2-0.9c0.3-0.1,0.6-0.3,0.9-0.3c0.3-0.1,0.6-0.1,0.8,0
			s0.5,0.1,0.8,0.2l-0.4,1.1c-0.2-0.1-0.5-0.1-0.8-0.1c-0.3,0-0.5,0.1-0.7,0.2c-0.4,0.2-0.7,0.5-0.8,0.9c-0.1,0.4-0.1,0.7,0.2,1.2
			L129,97c0.2,0.4,0.5,0.7,0.9,0.8c0.4,0.1,0.7,0.1,1.2-0.1c0.2-0.1,0.4-0.3,0.6-0.5s0.3-0.5,0.3-0.7l1.2,0.4c0,0.3-0.1,0.5-0.3,0.7
			c-0.1,0.2-0.3,0.5-0.5,0.6c-0.2,0.2-0.5,0.4-0.8,0.5C131.1,99,130.8,99.1,130.8,99.1z"/>
		<path id="XMLID_906_" class="st10" d="M132.2,91.3l1.1-0.5l2.5,5.8l-1.1,0.5L132.2,91.3z M135.5,91.3c-0.2,0-0.4,0-0.6,0.1
			c-0.4,0.2-0.6,0.4-0.7,0.7c-0.1,0.3-0.1,0.6,0.1,1l-0.6-1.1c0-0.4,0.1-0.8,0.3-1.1c0.2-0.3,0.5-0.5,0.8-0.7
			c0.3-0.1,0.5-0.2,0.8-0.2c0.2,0,0.5,0,0.7,0.1l-0.3,1.3C135.8,91.3,135.6,91.3,135.5,91.3z"/>
		<path id="XMLID_904_" class="st10" d="M140.9,94.8c0,0-0.2,0-0.7-0.1c-0.5-0.1-0.9-0.3-1.2-0.6c-0.3-0.3-0.6-0.8-0.8-1.3L138,92
			c-0.2-0.6-0.3-1.1-0.2-1.6s0.2-0.9,0.5-1.2c0.3-0.3,0.7-0.6,1.2-0.8c0.5-0.2,1-0.2,1.4-0.1c0.4,0.1,0.8,0.4,1.2,0.8
			c0.3,0.4,0.6,0.9,0.9,1.6l0.1,0.4l-4,1.4l-0.3-0.9l2.9-1c-0.2-0.5-0.5-0.8-0.8-1c-0.3-0.2-0.6-0.2-1-0.1c-0.4,0.2-0.7,0.4-0.9,0.8
			c-0.1,0.4-0.1,0.8,0.1,1.4l0.3,0.8c0.2,0.5,0.4,0.8,0.8,1c0.3,0.2,0.8,0.2,1.2,0c0.2-0.1,0.5-0.2,0.6-0.4c0.2-0.2,0.4-0.4,0.5-0.6
			l1,0.5c-0.2,0.4-0.4,0.7-0.8,1c-0.3,0.3-0.6,0.5-1,0.6C141.2,94.7,140.9,94.8,140.9,94.8z"/>
		<path id="XMLID_901_" class="st10" d="M146.1,92.8c-0.4-0.1-0.7-0.3-0.9-0.7c-0.3-0.3-0.5-0.8-0.6-1.3l-0.3-1.3
			c-0.1-0.5-0.2-1-0.1-1.4c0.1-0.4,0.2-0.8,0.5-1c0.3-0.3,0.6-0.5,1-0.6c0.4-0.1,0.7-0.1,1.1,0c0.3,0.1,0.7,0.3,0.9,0.6l0.2,1.3
			c-0.1-0.3-0.2-0.5-0.3-0.6c-0.1-0.2-0.3-0.3-0.5-0.3c-0.2,0-0.4,0-0.7,0c-0.4,0.1-0.7,0.3-0.8,0.6s-0.2,0.7-0.1,1.1l0.3,1.3
			c0.1,0.4,0.3,0.8,0.6,0.9c0.3,0.2,0.6,0.2,1,0.1c0.3-0.1,0.5-0.2,0.6-0.3c0.2-0.1,0.2-0.3,0.3-0.5c0-0.2,0-0.4,0-0.7l0.4,1.3
			c0,0.3-0.2,0.6-0.4,0.9c-0.2,0.3-0.5,0.5-0.9,0.6C146.8,92.9,146.4,92.9,146.1,92.8z M146.6,83.8l1.2-0.3L150,92l-1.2,0.3
			L146.6,83.8z"/>
		<path id="XMLID_898_" class="st10" d="M149.9,83l1.2-0.2l0.2,1.2l-1.2,0.2L149.9,83z M150.4,85.5l1.2-0.2l1.2,6.2l-1.2,0.2
			L150.4,85.5z"/>
		<path id="XMLID_895_" class="st10" d="M153.2,84.9l2.8-0.4l0.2,1.1l-2.8,0.4L153.2,84.9z M155.1,90.6c-0.3-0.2-0.5-0.6-0.5-1.2
			l-1-6.4l1.2-0.2l1,6.4c0,0.2,0.1,0.3,0.1,0.3c0.1,0.1,0.2,0.1,0.3,0.1l0.6-0.1l0.2,1.2l-0.7,0.1C155.7,90.9,155.3,90.9,155.1,90.6
			z"/>
		<path id="XMLID_892_" class="st10" d="M161.6,86.2c0-0.4-0.2-0.7-0.4-0.9c-0.2-0.2-0.6-0.3-1-0.3c-0.2,0-0.5,0.1-0.7,0.2
			c-0.2,0.1-0.4,0.2-0.6,0.4l-0.9-0.5c0.2-0.3,0.5-0.6,0.9-0.8s0.8-0.3,1.3-0.4c0.5,0,1,0,1.3,0.1c0.4,0.1,0.7,0.4,0.9,0.7
			c0.2,0.3,0.4,0.7,0.4,1.2l0.4,4l-1.2,0.1L161.6,86.2z M158.7,90.1c-0.4-0.3-0.6-0.8-0.7-1.4c-0.1-0.6,0.1-1.1,0.4-1.4
			c0.3-0.3,0.8-0.5,1.5-0.6l1.8-0.2l0.2,1l-1.8,0.2c-0.3,0-0.5,0.1-0.7,0.3c-0.1,0.2-0.2,0.4-0.2,0.7c0,0.3,0.2,0.5,0.4,0.7
			c0.2,0.1,0.5,0.2,1,0.1c0.5,0,0.8-0.1,1-0.2c0.2-0.1,0.3-0.3,0.3-0.5l0.2,0.9c-0.1,0.2-0.2,0.3-0.4,0.5c-0.1,0.1-0.3,0.2-0.5,0.3
			c-0.2,0.1-0.4,0.1-0.7,0.1C159.7,90.5,159.1,90.4,158.7,90.1z"/>
		<path id="XMLID_889_" class="st10" d="M164.2,83.7l2.8-0.1l0,1.1l-2.8,0.1L164.2,83.7z M165.3,89.6c-0.2-0.3-0.4-0.7-0.4-1.2
			l-0.2-6.5l1.2,0l0.2,6.5c0,0.2,0,0.3,0.1,0.3c0.1,0.1,0.2,0.1,0.3,0.1l0.6,0l0,1.2l-0.7,0C166,90,165.6,89.9,165.3,89.6z"/>
		<path id="XMLID_886_" class="st10" d="M168.8,83.6l1.2,0l-0.1,6.3l-1.2,0L168.8,83.6z M168.8,81.1l1.2,0l0,1.2l-1.2,0L168.8,81.1z
			"/>
		<path id="XMLID_883_" class="st10" d="M172.7,89.8c-0.4-0.2-0.6-0.6-0.8-1c-0.2-0.4-0.2-0.9-0.2-1.5l0.1-1c0-0.6,0.2-1,0.4-1.4
			c0.2-0.4,0.5-0.7,0.9-0.9c0.4-0.2,0.9-0.3,1.4-0.2c0.5,0,1,0.2,1.4,0.4c0.4,0.2,0.6,0.6,0.8,1c0.2,0.4,0.2,0.9,0.2,1.5l-0.1,1
			c0,0.6-0.2,1.1-0.4,1.4c-0.2,0.4-0.5,0.7-0.9,0.9c-0.4,0.2-0.9,0.3-1.4,0.2S173.1,90,172.7,89.8z M175.2,88.7
			c0.3-0.3,0.4-0.6,0.4-1.1l0.1-1c0-0.5-0.1-0.9-0.3-1.2c-0.2-0.3-0.5-0.4-1-0.5c-0.4,0-0.8,0.1-1,0.3c-0.3,0.3-0.4,0.6-0.4,1.1
			l-0.1,1c0,0.5,0.1,0.9,0.3,1.2c0.2,0.3,0.5,0.4,1,0.5C174.6,89.1,174.9,88.9,175.2,88.7z"/>
		<path id="XMLID_880_" class="st10" d="M179.2,84.2l1.2,0.2l-0.9,6.2l-1.2-0.2L179.2,84.2z M182.5,87.2c0.1-0.4,0-0.8-0.2-1.1
			c-0.2-0.3-0.5-0.4-0.9-0.5c-0.4-0.1-0.7,0-1,0.2s-0.4,0.5-0.5,0.8l0.1-1.2c0.2-0.3,0.5-0.6,0.9-0.8c0.3-0.2,0.7-0.2,1.1-0.2
			c0.7,0.1,1.2,0.4,1.5,0.9c0.3,0.5,0.4,1.1,0.3,2l-0.6,3.8L182,91L182.5,87.2z"/>
		<path id="XMLID_877_" class="st10" d="M190.5,83.8l1.2,0.3l-2.4,8.5l-1.2-0.3L190.5,83.8z M189.1,91.3l2.3,0.6
			c0.6,0.2,1.1,0.2,1.4,0c0.3-0.2,0.6-0.4,0.7-0.9l0,0c0.1-0.3,0.1-0.5,0.1-0.8c0-0.2-0.1-0.4-0.3-0.6c-0.2-0.2-0.4-0.3-0.8-0.4
			l-2.6-0.7l0.3-1.1l2.6,0.7c0.4,0.1,0.8,0.1,1.1,0c0.3-0.1,0.5-0.4,0.6-0.8c0.1-0.4,0.1-0.8-0.1-1.1c-0.2-0.3-0.5-0.5-1-0.6
			l-2.4-0.7l0.3-1.1l2.6,0.7c0.5,0.2,1,0.4,1.3,0.7c0.3,0.3,0.5,0.6,0.6,1c0.1,0.4,0.1,0.8-0.1,1.3c-0.1,0.3-0.2,0.5-0.4,0.8
			c-0.2,0.2-0.4,0.4-0.7,0.5s-0.6,0.2-1,0.1c0.3,0.1,0.6,0.4,0.8,0.6s0.3,0.6,0.4,0.9c0,0.3,0,0.7-0.1,1l0,0
			c-0.1,0.5-0.3,0.8-0.6,1.1c-0.3,0.3-0.7,0.5-1.1,0.6c-0.4,0.1-0.9,0.1-1.4-0.1l-2.7-0.8L189.1,91.3z"/>
		<path id="XMLID_874_" class="st10" d="M196.4,94.5c-0.3-0.3-0.4-0.7-0.5-1.2c0-0.5,0-1,0.2-1.5l0.4-1c0.2-0.5,0.5-1,0.8-1.3
			c0.3-0.3,0.7-0.5,1.2-0.6c0.4-0.1,0.9,0,1.4,0.2c0.5,0.2,0.9,0.5,1.2,0.8c0.3,0.3,0.4,0.7,0.5,1.2c0,0.5,0,0.9-0.2,1.5l-0.4,1
			c-0.2,0.5-0.5,1-0.8,1.3c-0.3,0.3-0.7,0.5-1.2,0.6c-0.4,0.1-0.9,0-1.4-0.2C197.1,95.1,196.7,94.9,196.4,94.5z M199.1,94.2
			c0.3-0.2,0.6-0.5,0.7-0.9l0.4-1c0.2-0.5,0.2-0.9,0.1-1.2c-0.1-0.3-0.4-0.6-0.8-0.7c-0.4-0.2-0.8-0.1-1.1,0
			c-0.3,0.2-0.6,0.5-0.7,0.9l-0.4,1c-0.2,0.5-0.2,0.9-0.1,1.2c0.1,0.3,0.4,0.6,0.8,0.7C198.4,94.4,198.8,94.4,199.1,94.2z"/>
		<path id="XMLID_871_" class="st10" d="M201.9,96.6c-0.2-0.5-0.2-1,0.1-1.6c0.3-0.6,0.6-0.9,1.1-1c0.4-0.1,1,0,1.6,0.3l1.6,0.8
			l-0.3,0.9l-1.7-0.8c-0.3-0.1-0.5-0.2-0.7-0.1c-0.2,0.1-0.4,0.2-0.5,0.5c-0.1,0.3-0.1,0.5,0,0.8c0.1,0.2,0.4,0.4,0.8,0.6
			c0.4,0.2,0.8,0.3,1,0.3c0.3,0,0.4-0.1,0.5-0.3l-0.3,0.9c-0.2,0.1-0.4,0.2-0.5,0.2c-0.2,0-0.4,0-0.6,0s-0.4-0.1-0.7-0.2
			C202.5,97.4,202.1,97,201.9,96.6z M206.3,94.7c0.2-0.4,0.2-0.7,0.1-1c-0.1-0.3-0.3-0.5-0.7-0.7c-0.2-0.1-0.5-0.2-0.7-0.2
			c-0.2,0-0.5,0-0.7,0l-0.5-0.9c0.3-0.2,0.7-0.2,1.1-0.2c0.4,0,0.8,0.1,1.3,0.3c0.5,0.2,0.8,0.5,1.1,0.8c0.3,0.3,0.4,0.7,0.4,1.1
			c0,0.4-0.1,0.8-0.3,1.3l-1.7,3.6l-1.1-0.5L206.3,94.7z"/>
		<path id="XMLID_868_" class="st10" d="M210.3,94.1l1.1,0.6l-3.1,5.5l-1.1-0.6L210.3,94.1z M212.3,96.6c-0.1-0.1-0.3-0.3-0.4-0.4
			c-0.3-0.2-0.7-0.2-0.9-0.2c-0.3,0.1-0.5,0.3-0.7,0.6l0.5-1.1c0.4-0.2,0.7-0.4,1.1-0.4c0.4,0,0.7,0,1,0.2c0.2,0.1,0.5,0.3,0.6,0.5
			c0.2,0.2,0.3,0.4,0.3,0.6l-1.2,0.6C212.5,96.9,212.4,96.8,212.3,96.6z"/>
		<path id="XMLID_865_" class="st10" d="M212.3,102.3c-0.2-0.3-0.2-0.7-0.1-1.1c0.1-0.4,0.3-0.8,0.5-1.3l0.8-1.2
			c0.3-0.5,0.6-0.8,1-1c0.3-0.2,0.7-0.3,1.1-0.3c0.4,0,0.7,0.1,1.1,0.4c0.3,0.2,0.5,0.5,0.7,0.8c0.2,0.3,0.2,0.7,0.2,1.1l-0.8,1
			c0.1-0.2,0.2-0.4,0.3-0.7c0-0.2,0-0.4-0.1-0.6c-0.1-0.2-0.3-0.3-0.5-0.5c-0.3-0.2-0.7-0.3-1-0.2c-0.3,0.1-0.6,0.3-0.9,0.7
			l-0.7,1.1c-0.3,0.4-0.3,0.7-0.3,1.1c0,0.3,0.2,0.6,0.6,0.8c0.2,0.1,0.4,0.2,0.6,0.2c0.2,0,0.4,0,0.6-0.1c0.2-0.1,0.4-0.3,0.5-0.5
			l-0.7,1.2c-0.3,0.2-0.6,0.3-0.9,0.3c-0.4,0-0.7-0.1-1-0.3C212.7,103,212.5,102.7,212.3,102.3z M219.3,96.6l1,0.7l-4.8,7.4l-1-0.7
			L219.3,96.6z"/>
		<path id="XMLID_862_" class="st10" d="M224.1,102.2c0.3-0.4,0.7-0.7,1.1-0.7c0.4-0.1,0.8,0.1,1.2,0.4l0.7,0.6l-0.7,0.9l-0.7-0.5
			c-0.1-0.1-0.2-0.1-0.3-0.1s-0.2,0.1-0.3,0.2l-4.5,5.6l-1-0.8L224.1,102.2z M223.1,102.4l2.4,2l-0.7,0.8l-2.4-2L223.1,102.4z"/>
		<path id="XMLID_859_" class="st10" d="M223.2,110.4c-0.1-0.4-0.1-0.8,0-1.3c0.1-0.4,0.4-0.9,0.8-1.3l0.7-0.8
			c0.4-0.4,0.8-0.7,1.2-0.9c0.4-0.2,0.8-0.2,1.3-0.1c0.4,0.1,0.8,0.3,1.2,0.7c0.4,0.4,0.7,0.8,0.8,1.2c0.1,0.4,0.2,0.8,0,1.3
			c-0.1,0.4-0.4,0.9-0.8,1.3l-0.7,0.8c-0.4,0.4-0.8,0.7-1.2,0.9c-0.4,0.2-0.8,0.2-1.3,0.1c-0.4-0.1-0.8-0.3-1.2-0.7
			C223.6,111.2,223.3,110.8,223.2,110.4z M225.8,111.1c0.4,0,0.7-0.2,1-0.6l0.7-0.8c0.3-0.4,0.5-0.7,0.5-1.1c0-0.4-0.1-0.7-0.5-1
			c-0.3-0.3-0.7-0.4-1-0.4c-0.4,0-0.7,0.2-1,0.6l-0.7,0.8c-0.3,0.4-0.5,0.7-0.5,1.1s0.1,0.7,0.5,1
			C225.1,111,225.4,111.1,225.8,111.1z"/>
		<path id="XMLID_856_" class="st10" d="M231.6,110l0.8,0.9l-4.5,4.3l-0.8-0.9L231.6,110z M232.8,113c-0.1-0.2-0.2-0.3-0.3-0.5
			c-0.3-0.3-0.6-0.4-0.9-0.4c-0.3,0-0.6,0.1-0.9,0.4l0.8-0.9c0.4-0.1,0.8-0.1,1.1-0.1c0.4,0.1,0.7,0.2,0.9,0.5
			c0.2,0.2,0.3,0.4,0.4,0.6c0.1,0.2,0.1,0.5,0.2,0.7l-1.3,0.2C232.9,113.4,232.9,113.2,232.8,113z"/>
	</g>
</g>
<g id="XMLID_1_">
</g>
<g id="XMLID_259_">
</g>
<g id="XMLID_260_">
</g>
<g id="XMLID_261_">
</g>
<g id="XMLID_262_">
</g>
<g id="XMLID_263_">
</g>
</svg>
